<?xml version="1.0" encoding="UTF-8" ?>
<!DOCTYPE svg PUBLIC "-//W3C//DTD SVG 1.1//EN" "http://www.w3.org/Graphics/SVG/1.1/DTD/svg11.dtd">
<svg width="173pt" height="112pt" viewBox="0 0 173 112" version="1.1" xmlns="http://www.w3.org/2000/svg">
<g id="#000000ff">
<path fill="#000000" opacity="1.00" d=" M 0.00 0.00 L 173.00 0.00 L 173.00 112.00 L 0.00 112.00 L 0.00 0.00 M 79.25 13.01 C 78.76 30.27 78.27 47.52 77.75 64.77 C 73.91 63.35 70.08 61.91 66.23 60.53 C 66.34 45.69 66.41 30.86 66.48 16.03 C 55.65 18.95 44.81 21.82 33.99 24.79 C 34.00 27.11 34.00 29.43 34.00 31.75 C 39.33 30.67 44.66 29.58 50.00 28.50 C 45.43 35.77 40.76 42.97 36.21 50.24 C 33.22 42.44 31.29 34.26 28.77 26.29 C 27.00 26.61 25.23 26.94 23.46 27.28 C 19.55 35.78 15.51 44.23 11.53 52.70 C 13.44 53.21 15.34 53.72 17.24 54.23 C 20.17 49.09 22.67 43.71 25.83 38.70 C 28.12 45.62 30.46 52.52 32.72 59.45 C 41.68 62.39 50.67 65.26 59.65 68.13 C 52.60 70.67 44.86 67.68 37.59 69.40 C 30.40 69.03 23.18 69.05 15.97 69.06 C 13.60 68.77 10.95 70.34 11.05 72.95 C 10.63 80.02 10.89 87.11 10.92 94.19 C 11.16 95.99 11.00 98.11 12.65 99.31 C 15.06 101.88 18.92 100.94 22.05 101.09 C 65.04 101.17 108.03 101.05 151.02 101.13 C 153.49 100.91 156.58 101.51 158.32 99.30 C 159.81 98.01 159.85 95.98 160.17 94.19 C 160.03 87.08 160.39 79.96 159.94 72.86 C 159.98 70.34 157.40 68.79 155.09 69.09 C 143.14 69.13 131.20 69.24 119.25 69.33 C 117.32 69.09 115.37 68.64 113.42 68.87 C 114.64 67.46 115.49 65.78 115.96 63.98 C 118.56 54.43 121.11 44.86 123.75 35.31 C 126.89 44.24 129.97 53.19 133.03 62.14 C 136.01 62.58 138.77 61.39 141.31 59.96 C 141.60 55.11 141.30 50.26 141.27 45.41 C 144.01 45.42 146.76 45.38 149.51 45.22 C 150.85 49.03 152.20 52.84 153.58 56.64 C 155.51 56.14 158.41 56.21 159.18 53.92 C 158.49 50.62 156.55 47.74 155.27 44.64 C 156.59 43.72 157.90 42.79 159.21 41.85 C 159.23 40.54 159.26 39.23 159.30 37.91 C 158.19 36.58 156.96 35.32 155.31 34.69 C 149.15 31.93 143.09 28.94 136.85 26.36 C 135.87 34.14 136.25 42.04 135.73 49.86 C 132.34 41.00 129.02 32.12 125.77 23.21 C 124.09 23.17 121.45 22.57 120.85 24.75 C 117.45 36.99 114.36 49.33 110.94 61.57 C 105.60 62.32 100.43 64.63 94.98 64.19 C 95.26 49.88 95.47 35.57 95.75 21.26 C 101.49 23.06 107.01 25.68 112.89 26.99 C 115.17 25.56 115.36 20.46 112.42 19.59 C 107.51 17.52 102.55 15.57 97.64 13.52 C 96.05 12.95 93.90 12.07 92.52 13.53 C 90.54 15.86 89.97 19.03 89.97 22.00 C 89.82 38.01 89.70 54.02 89.48 70.03 C 87.92 68.85 85.71 69.37 83.89 69.04 C 84.32 49.69 84.88 30.32 84.80 10.98 C 82.91 11.56 81.07 12.26 79.25 13.01 Z" />
<path fill="#000000" opacity="1.00" d=" M 41.75 55.01 C 47.99 44.74 54.25 34.48 60.52 24.23 C 60.62 37.01 60.61 49.80 60.82 62.58 L 60.14 63.40 C 60.20 62.47 60.31 60.59 60.36 59.66 C 54.21 57.90 47.95 56.60 41.75 55.01 Z" />
<path fill="#000000" opacity="1.00" d=" M 142.02 34.06 C 146.14 36.07 150.93 36.91 154.52 39.86 C 150.33 39.82 146.16 39.35 141.99 38.98 C 142.00 37.34 142.01 35.70 142.02 34.06 Z" />
</g>
<g id="#d8d107ff">
<path fill="#d8d107" opacity="1.00" d=" M 79.25 13.01 C 81.07 12.26 82.91 11.56 84.80 10.98 C 84.88 30.32 84.32 49.69 83.89 69.04 C 83.00 70.73 82.31 73.25 79.98 73.29 C 74.93 73.71 70.35 70.81 65.67 69.33 C 62.67 68.45 61.00 65.57 60.82 62.58 C 60.61 49.80 60.62 37.01 60.52 24.23 C 54.25 34.48 47.99 44.74 41.75 55.01 C 47.95 56.60 54.21 57.90 60.36 59.66 C 60.31 60.59 60.20 62.47 60.14 63.40 C 60.03 64.94 60.00 66.48 59.98 68.02 L 59.65 68.13 C 50.67 65.26 41.68 62.39 32.72 59.45 C 30.46 52.52 28.12 45.62 25.83 38.70 C 22.67 43.71 20.17 49.09 17.24 54.23 C 15.34 53.72 13.44 53.21 11.53 52.70 C 15.51 44.23 19.55 35.78 23.46 27.28 C 25.23 26.94 27.00 26.61 28.77 26.29 C 31.29 34.26 33.22 42.44 36.21 50.24 C 40.76 42.97 45.43 35.77 50.00 28.50 C 44.66 29.58 39.33 30.67 34.00 31.75 C 34.00 29.43 34.00 27.11 33.99 24.79 C 44.81 21.82 55.65 18.95 66.48 16.03 C 66.41 30.86 66.34 45.69 66.23 60.53 C 70.08 61.91 73.91 63.35 77.75 64.77 C 78.27 47.52 78.76 30.27 79.25 13.01 Z" />
<path fill="#d8d107" opacity="1.00" d=" M 92.52 13.53 C 93.90 12.07 96.05 12.95 97.64 13.52 C 102.55 15.57 107.51 17.52 112.42 19.59 C 115.36 20.46 115.17 25.56 112.89 26.99 C 107.01 25.68 101.49 23.06 95.75 21.26 C 95.47 35.57 95.26 49.88 94.98 64.19 C 100.43 64.63 105.60 62.32 110.94 61.57 C 114.36 49.33 117.45 36.99 120.85 24.75 C 121.45 22.57 124.09 23.17 125.77 23.21 C 129.02 32.12 132.34 41.00 135.73 49.86 C 136.25 42.04 135.87 34.14 136.85 26.36 C 143.09 28.94 149.15 31.93 155.31 34.69 C 156.96 35.32 158.19 36.58 159.30 37.91 C 159.26 39.23 159.23 40.54 159.21 41.85 C 157.90 42.79 156.59 43.72 155.27 44.64 C 156.55 47.74 158.49 50.62 159.18 53.92 C 158.41 56.21 155.51 56.14 153.58 56.64 C 152.20 52.84 150.85 49.03 149.51 45.22 C 146.76 45.38 144.01 45.42 141.27 45.41 C 141.30 50.26 141.60 55.11 141.31 59.96 C 138.77 61.39 136.01 62.58 133.03 62.14 C 129.97 53.19 126.89 44.24 123.75 35.31 C 121.11 44.86 118.56 54.43 115.96 63.98 C 115.49 65.78 114.64 67.46 113.42 68.87 C 107.33 70.58 101.12 71.87 94.90 73.03 C 92.55 73.59 91.11 71.24 89.48 70.03 C 89.70 54.02 89.82 38.01 89.97 22.00 C 89.97 19.03 90.54 15.86 92.52 13.53 M 142.02 34.06 C 142.01 35.70 142.00 37.34 141.99 38.98 C 146.16 39.35 150.33 39.82 154.52 39.86 C 150.93 36.91 146.14 36.07 142.02 34.06 Z" />
</g>
<g id="#170f0aff">
<path fill="#170f0a" opacity="1.00" d=" M 60.14 63.40 L 60.82 62.58 C 61.00 65.57 62.67 68.45 65.67 69.33 C 70.35 70.81 74.93 73.71 79.98 73.29 C 82.31 73.25 83.00 70.73 83.89 69.04 C 85.71 69.37 87.92 68.85 89.48 70.03 C 91.11 71.24 92.55 73.59 94.90 73.03 C 101.12 71.87 107.33 70.58 113.42 68.87 C 115.37 68.64 117.32 69.09 119.25 69.33 C 114.94 72.71 109.97 75.12 105.73 78.58 C 102.02 78.62 98.31 78.62 94.60 78.63 C 94.54 81.96 94.46 85.29 94.11 88.61 C 93.10 85.97 92.67 83.17 92.39 80.37 C 88.35 80.30 83.95 79.61 80.37 82.01 C 79.76 81.11 79.15 80.21 78.53 79.31 C 77.97 79.30 76.85 79.26 76.29 79.24 C 74.18 82.13 72.10 85.04 70.05 87.97 L 69.64 87.36 C 69.18 85.77 68.79 84.18 68.40 82.58 C 65.13 82.45 61.85 82.40 58.58 82.37 C 58.56 81.68 58.54 80.31 58.53 79.62 C 62.10 79.62 65.70 79.71 69.26 79.28 C 65.64 78.09 61.76 78.77 58.03 78.64 C 57.74 77.92 57.45 77.21 57.16 76.49 C 50.44 74.69 43.90 72.32 37.59 69.40 C 44.86 67.68 52.60 70.67 59.65 68.13 L 59.98 68.02 C 60.00 66.48 60.03 64.94 60.14 63.40 Z" />
</g>
<g id="#311e14ff">
<path fill="#311e14" opacity="1.00" d=" M 11.05 72.95 C 10.95 70.34 13.60 68.77 15.97 69.06 C 23.18 69.05 30.40 69.03 37.59 69.40 C 43.90 72.32 50.44 74.69 57.16 76.49 C 57.45 77.21 57.74 77.92 58.03 78.64 C 57.51 79.40 57.00 80.15 56.49 80.91 C 56.78 81.58 57.35 82.92 57.63 83.58 C 60.89 83.70 64.14 83.70 67.40 83.67 C 67.38 84.46 67.35 86.06 67.33 86.85 C 63.93 86.87 60.52 86.87 57.12 86.86 C 57.12 87.28 57.13 88.12 57.14 88.54 C 61.31 88.43 65.70 89.11 69.64 87.36 L 70.05 87.97 C 70.29 88.31 70.77 88.98 71.01 89.32 C 73.64 86.64 75.38 83.30 77.14 80.02 C 79.28 82.68 80.80 85.75 82.59 88.65 C 83.16 88.64 84.29 88.62 84.86 88.61 C 83.38 86.40 81.88 84.20 80.37 82.01 C 83.95 79.61 88.35 80.30 92.39 80.37 C 92.67 83.17 93.10 85.97 94.11 88.61 C 98.42 88.18 103.44 89.83 107.23 87.27 C 107.61 85.00 107.40 82.69 107.38 80.40 C 106.83 79.79 106.28 79.19 105.73 78.58 C 109.97 75.12 114.94 72.71 119.25 69.33 C 131.20 69.24 143.14 69.13 155.09 69.09 C 157.40 68.79 159.98 70.34 159.94 72.86 C 160.39 79.96 160.03 87.08 160.17 94.19 C 155.59 97.00 150.09 95.96 145.00 96.08 C 102.66 96.05 60.32 96.05 17.97 96.09 C 15.46 96.24 13.11 95.33 10.92 94.19 C 10.89 87.11 10.63 80.02 11.05 72.95 M 17.79 78.66 C 15.37 79.71 16.23 84.26 19.09 83.76 C 21.83 84.51 27.78 81.96 27.42 86.72 C 23.73 87.52 19.23 85.46 16.12 88.08 C 19.66 88.82 23.31 88.66 26.89 88.40 C 29.70 88.33 29.98 84.19 28.08 82.74 C 24.92 81.93 21.59 82.43 18.36 82.29 C 18.46 81.71 18.66 80.56 18.76 79.98 C 21.88 79.67 25.02 80.07 28.14 79.72 L 28.94 78.64 C 25.24 78.45 21.49 78.21 17.79 78.66 M 29.94 88.95 C 33.92 87.95 34.84 83.12 37.17 80.23 C 38.46 82.16 39.67 84.15 40.91 86.11 C 41.81 87.40 42.70 89.40 44.77 88.61 C 42.11 85.13 40.28 80.98 37.02 77.98 C 34.53 81.55 31.70 84.95 29.94 88.95 M 45.51 78.41 C 45.12 81.79 45.31 85.21 45.32 88.60 C 48.66 88.54 51.99 88.52 55.33 88.53 L 55.25 86.86 C 52.56 86.85 49.86 86.86 47.17 86.87 C 47.02 84.03 47.71 80.98 46.50 78.30 C 46.25 78.33 45.76 78.39 45.51 78.41 M 109.45 79.86 C 109.29 82.77 109.13 85.69 109.36 88.60 C 109.67 88.64 110.28 88.72 110.59 88.76 C 111.65 85.33 110.41 81.62 110.51 78.08 C 109.74 78.44 109.39 79.03 109.45 79.86 M 114.52 78.75 C 112.42 79.26 113.51 81.95 113.42 83.48 C 116.70 83.79 120.00 83.85 123.30 83.75 C 123.43 84.76 123.55 85.77 123.67 86.79 C 120.26 86.87 116.86 86.88 113.45 86.85 L 113.33 88.52 C 117.39 88.25 121.79 89.39 125.57 87.43 C 125.30 85.81 126.03 83.54 124.16 82.66 C 121.04 82.09 117.84 82.45 114.68 82.39 C 114.66 81.70 114.62 80.34 114.60 79.65 C 118.02 79.73 121.44 79.77 124.86 79.78 C 124.83 79.46 124.78 78.83 124.75 78.52 C 121.34 78.63 117.91 78.37 114.52 78.75 M 127.96 78.92 C 126.38 81.25 127.21 84.41 127.22 87.07 C 130.12 89.92 134.95 88.00 138.63 88.53 C 138.54 88.09 138.36 87.23 138.27 86.80 C 135.27 86.82 132.26 87.05 129.27 86.66 C 128.39 84.92 128.83 82.77 128.91 80.88 C 131.19 77.83 136.98 82.00 138.82 78.54 C 135.21 78.63 131.47 78.00 127.96 78.92 M 140.65 78.68 C 139.54 81.78 139.46 85.19 140.70 88.28 C 144.57 88.66 148.46 88.64 152.33 88.27 C 153.37 85.36 154.09 81.43 152.10 78.84 C 148.36 78.00 144.45 78.58 140.65 78.68 Z" />
</g>
<g id="#ffbbb8ff">
<path fill="#ffbbb8" opacity="1.00" d=" M 17.79 78.66 C 21.49 78.21 25.24 78.45 28.94 78.64 L 28.14 79.72 C 25.02 80.07 21.88 79.67 18.76 79.98 C 18.66 80.56 18.46 81.71 18.36 82.29 C 21.59 82.43 24.92 81.93 28.08 82.74 C 29.98 84.19 29.70 88.33 26.89 88.40 C 23.31 88.66 19.66 88.82 16.12 88.08 C 19.23 85.46 23.73 87.52 27.42 86.72 C 27.78 81.96 21.83 84.51 19.09 83.76 C 16.23 84.26 15.37 79.71 17.79 78.66 Z" />
</g>
<g id="#febbb8ff">
<path fill="#febbb8" opacity="1.00" d=" M 29.94 88.95 C 31.70 84.95 34.53 81.55 37.02 77.98 C 40.28 80.98 42.11 85.13 44.77 88.61 C 42.70 89.40 41.81 87.40 40.91 86.11 C 39.67 84.15 38.46 82.16 37.17 80.23 C 34.84 83.12 33.92 87.95 29.94 88.95 Z" />
<path fill="#febbb8" opacity="1.00" d=" M 45.51 78.41 C 45.76 78.39 46.25 78.33 46.50 78.30 C 47.71 80.98 47.02 84.03 47.17 86.87 C 49.86 86.86 52.56 86.85 55.25 86.86 L 55.33 88.53 C 51.99 88.52 48.66 88.54 45.32 88.60 C 45.31 85.21 45.12 81.79 45.51 78.41 Z" />
<path fill="#febbb8" opacity="1.00" d=" M 58.03 78.64 C 61.76 78.77 65.64 78.09 69.26 79.28 C 65.70 79.71 62.10 79.62 58.53 79.62 C 58.54 80.31 58.56 81.68 58.58 82.37 C 61.85 82.40 65.13 82.45 68.40 82.58 C 68.79 84.18 69.18 85.77 69.64 87.36 C 65.70 89.11 61.31 88.43 57.14 88.54 C 57.13 88.12 57.12 87.28 57.12 86.86 C 60.52 86.87 63.93 86.87 67.33 86.85 C 67.35 86.06 67.38 84.46 67.40 83.67 C 64.14 83.70 60.89 83.70 57.63 83.58 C 57.35 82.92 56.78 81.58 56.49 80.91 C 57.00 80.15 57.51 79.40 58.03 78.64 Z" />
<path fill="#febbb8" opacity="1.00" d=" M 109.45 79.86 C 109.39 79.03 109.74 78.44 110.51 78.08 C 110.41 81.62 111.65 85.33 110.59 88.76 C 110.28 88.72 109.67 88.64 109.36 88.60 C 109.13 85.69 109.29 82.77 109.45 79.86 Z" />
<path fill="#febbb8" opacity="1.00" d=" M 114.52 78.75 C 117.91 78.37 121.34 78.63 124.75 78.52 C 124.78 78.83 124.83 79.46 124.86 79.78 C 121.44 79.77 118.02 79.73 114.60 79.65 C 114.62 80.34 114.66 81.70 114.68 82.39 C 117.84 82.45 121.04 82.09 124.16 82.66 C 126.03 83.54 125.30 85.81 125.57 87.43 C 121.79 89.39 117.39 88.25 113.33 88.52 L 113.45 86.85 C 116.86 86.88 120.26 86.87 123.67 86.79 C 123.55 85.77 123.43 84.76 123.30 83.75 C 120.00 83.85 116.70 83.79 113.42 83.48 C 113.51 81.95 112.42 79.26 114.52 78.75 Z" />
<path fill="#febbb8" opacity="1.00" d=" M 127.96 78.92 C 131.47 78.00 135.21 78.63 138.82 78.54 C 136.98 82.00 131.19 77.83 128.91 80.88 C 128.83 82.77 128.39 84.92 129.27 86.66 C 132.26 87.05 135.27 86.82 138.27 86.80 C 138.36 87.23 138.54 88.09 138.63 88.53 C 134.95 88.00 130.12 89.92 127.22 87.07 C 127.21 84.41 126.38 81.25 127.96 78.92 Z" />
<path fill="#febbb8" opacity="1.00" d=" M 140.65 78.68 C 144.45 78.58 148.36 78.00 152.10 78.84 C 154.09 81.43 153.37 85.36 152.33 88.27 C 148.46 88.64 144.57 88.66 140.70 88.28 C 139.46 85.19 139.54 81.78 140.65 78.68 M 141.70 80.51 C 141.77 82.56 141.80 84.61 141.81 86.66 C 144.94 86.94 148.08 86.91 151.21 86.72 C 151.23 84.62 151.25 82.54 151.32 80.45 C 148.20 79.58 144.78 79.42 141.70 80.51 Z" />
</g>
<g id="#d09d9aff">
<path fill="#d09d9a" opacity="1.00" d=" M 94.60 78.63 C 98.31 78.62 102.02 78.62 105.73 78.58 C 106.28 79.19 106.83 79.79 107.38 80.40 C 107.40 82.69 107.61 85.00 107.23 87.27 C 103.44 89.83 98.42 88.18 94.11 88.61 C 94.46 85.29 94.54 81.96 94.60 78.63 M 96.30 79.55 C 96.35 81.98 96.41 84.42 96.47 86.85 C 99.37 86.81 102.27 86.80 105.17 86.84 C 105.55 84.48 105.57 82.08 105.46 79.69 C 102.41 79.66 99.35 79.62 96.30 79.55 Z" />
<path fill="#d09d9a" opacity="1.00" d=" M 76.29 79.24 C 76.85 79.26 77.97 79.30 78.53 79.31 C 79.15 80.21 79.76 81.11 80.37 82.01 C 81.88 84.20 83.38 86.40 84.86 88.61 C 84.29 88.62 83.16 88.64 82.59 88.65 C 80.80 85.75 79.28 82.68 77.14 80.02 C 75.38 83.30 73.64 86.64 71.01 89.32 C 70.77 88.98 70.29 88.31 70.05 87.97 C 72.10 85.04 74.18 82.13 76.29 79.24 Z" />
</g>
<g id="#271710ff">
<path fill="#271710" opacity="1.00" d=" M 96.30 79.55 C 99.35 79.62 102.41 79.66 105.46 79.69 C 105.57 82.08 105.55 84.48 105.17 86.84 C 102.27 86.80 99.37 86.81 96.47 86.85 C 96.41 84.42 96.35 81.98 96.30 79.55 Z" />
</g>
<g id="#321e14ff">
<path fill="#321e14" opacity="1.00" d=" M 141.70 80.51 C 144.78 79.42 148.20 79.58 151.32 80.45 C 151.25 82.54 151.23 84.62 151.21 86.72 C 148.08 86.91 144.94 86.94 141.81 86.66 C 141.80 84.61 141.77 82.56 141.70 80.51 Z" />
</g>
<g id="#0d0c0dff">
<path fill="#0d0c0d" opacity="1.00" d=" M 10.92 94.19 C 13.11 95.33 15.46 96.24 17.97 96.09 C 60.32 96.05 102.66 96.05 145.00 96.08 C 150.09 95.96 155.59 97.00 160.17 94.19 C 159.85 95.98 159.81 98.01 158.32 99.30 C 156.58 101.51 153.49 100.91 151.02 101.13 C 108.03 101.05 65.04 101.17 22.05 101.09 C 18.92 100.94 15.06 101.88 12.65 99.31 C 11.00 98.11 11.16 95.99 10.92 94.19 Z" />
</g>
</svg>
