<?xml version="1.0" encoding="UTF-8" ?>
<!DOCTYPE svg PUBLIC "-//W3C//DTD SVG 1.1//EN" "http://www.w3.org/Graphics/SVG/1.1/DTD/svg11.dtd">
<svg width="500pt" height="312pt" viewBox="0 0 500 312" version="1.1" xmlns="http://www.w3.org/2000/svg">
<g id="#010101ff">
<path fill="#010101" opacity="1.00" d=" M 0.00 0.00 L 500.00 0.00 L 500.00 209.06 C 490.24 209.04 480.47 208.82 470.71 208.88 C 463.82 209.42 456.90 209.09 450.00 208.96 C 420.00 209.05 390.00 209.02 360.00 208.93 C 348.60 209.21 337.19 208.63 325.80 209.45 C 302.40 208.36 278.96 209.38 255.54 208.79 L 255.24 207.74 C 256.22 205.08 256.56 201.85 258.82 199.92 C 263.29 198.30 268.23 198.53 272.67 196.74 C 283.67 192.33 292.79 183.51 297.75 172.76 C 300.41 167.16 300.90 160.04 297.28 154.74 C 295.87 152.22 292.75 151.99 290.18 152.18 C 283.01 152.35 277.21 156.95 271.58 160.82 C 270.92 157.26 270.87 151.27 265.79 151.59 C 261.56 151.89 254.95 151.37 253.51 156.54 C 253.72 156.86 254.13 157.49 254.34 157.81 C 255.86 160.28 258.03 162.93 257.24 166.04 C 256.05 172.27 254.62 178.51 252.41 184.47 C 251.48 187.33 248.50 188.52 246.50 190.48 C 246.19 191.96 246.85 193.42 246.99 194.89 C 247.96 199.43 245.85 203.81 245.27 208.26 C 241.07 212.88 234.52 211.38 229.00 211.55 C 184.33 211.50 139.67 211.54 95.00 211.53 C 87.93 211.57 80.85 211.37 73.78 211.69 C 73.26 184.38 73.46 157.05 73.17 129.74 C 85.90 125.94 98.76 122.48 111.91 120.51 C 117.45 120.31 123.14 118.30 128.60 119.58 C 130.07 122.83 126.98 126.27 126.95 129.72 C 129.40 129.70 132.26 130.16 134.12 128.15 C 138.76 124.03 138.84 114.20 132.45 111.73 C 128.06 110.95 123.61 111.98 119.23 112.36 C 117.02 111.69 114.85 110.89 112.69 110.07 C 120.22 107.94 127.33 102.66 129.32 94.78 C 131.58 83.79 131.09 72.12 127.35 61.51 C 124.13 53.50 119.85 45.98 115.22 38.72 C 113.25 35.92 113.11 32.46 113.32 29.18 C 118.67 29.00 123.38 31.82 128.44 33.05 C 130.95 33.76 133.58 34.04 136.01 35.01 C 139.93 38.34 142.62 42.84 145.78 46.85 C 147.28 48.85 148.80 50.83 150.37 52.79 C 153.61 46.69 154.45 39.41 152.11 32.85 C 150.25 28.64 146.84 25.48 143.40 22.56 C 139.96 19.80 139.40 14.83 135.80 12.22 C 131.14 8.89 125.03 6.44 119.37 8.70 C 112.05 11.46 104.98 15.87 100.39 22.32 C 94.99 31.23 94.60 44.10 101.98 52.06 C 107.55 58.37 111.77 66.45 111.73 75.03 C 111.83 77.76 110.55 80.22 109.15 82.48 C 106.95 80.02 105.09 77.29 103.58 74.36 C 98.80 64.87 88.51 58.92 78.06 58.22 C 66.16 56.78 54.02 59.73 43.77 65.85 C 36.74 69.58 31.28 75.64 24.12 79.14 C 13.58 85.39 5.92 95.43 0.00 105.97 L 0.00 0.00 M 361.03 13.50 C 359.13 15.24 363.18 17.14 363.77 14.87 C 364.23 13.30 362.04 12.65 361.03 13.50 M 430.59 18.40 C 430.14 20.89 428.97 23.56 430.15 26.03 C 432.15 30.59 435.35 34.57 436.83 39.37 C 440.45 49.23 437.14 60.66 430.35 68.35 C 425.33 74.21 417.87 77.25 410.50 78.83 C 404.67 80.13 399.07 76.61 393.22 77.51 C 391.30 77.62 388.99 78.87 389.35 81.11 C 388.61 86.40 393.46 89.98 397.41 92.45 C 407.95 98.44 421.12 100.37 432.74 96.50 C 441.50 93.73 448.53 87.32 454.19 80.29 C 458.94 73.17 461.45 64.59 461.59 56.04 C 462.16 45.26 457.14 34.80 449.92 27.03 C 445.03 21.63 437.97 18.07 430.59 18.40 M 209.79 75.07 C 209.95 75.42 210.26 76.12 210.42 76.47 C 209.74 76.87 208.38 77.67 207.70 78.07 C 208.60 79.84 209.79 81.45 210.95 83.06 C 211.32 81.90 211.72 80.75 212.11 79.60 C 213.03 77.49 211.26 76.23 209.79 75.07 M 454.33 133.90 C 455.65 135.88 457.95 136.85 459.65 138.45 C 460.11 140.38 459.62 142.37 459.26 144.27 C 455.41 161.18 449.88 177.63 444.97 194.24 C 444.38 196.24 444.76 198.33 445.00 200.36 C 450.17 202.35 455.60 200.14 460.93 200.37 C 461.24 199.32 461.56 198.28 461.89 197.25 C 461.23 196.85 459.92 196.05 459.26 195.65 C 459.30 186.92 462.59 178.70 464.22 170.22 C 466.40 159.16 471.11 148.82 474.05 137.99 C 474.41 135.03 474.22 129.47 470.08 129.68 C 465.77 129.50 461.39 129.34 457.12 130.08 C 455.36 130.37 454.65 132.37 454.33 133.90 M 275.88 131.00 C 276.33 132.05 276.83 133.07 277.38 134.07 C 278.46 133.57 279.45 132.89 280.42 132.20 C 278.91 131.77 277.40 131.38 275.88 131.00 M 419.03 133.41 C 417.39 134.47 419.49 136.67 420.85 135.55 C 422.50 134.46 420.39 132.31 419.03 133.41 M 176.74 137.75 C 167.44 141.39 160.19 148.99 155.44 157.62 C 152.45 163.16 152.36 169.59 151.59 175.69 C 145.83 175.92 139.93 174.97 134.28 176.34 C 134.12 176.91 133.79 178.06 133.63 178.63 L 132.47 178.76 C 132.95 178.98 133.92 179.43 134.40 179.65 C 135.11 182.53 135.96 185.37 136.80 188.22 C 140.93 188.70 145.66 188.16 148.87 191.34 C 148.48 191.72 147.71 192.47 147.32 192.84 C 147.68 193.52 148.38 194.87 148.73 195.54 C 151.79 195.59 154.87 195.51 157.91 195.92 C 158.48 196.95 158.84 198.08 159.20 199.20 C 159.47 199.81 160.02 201.05 160.30 201.67 C 165.30 203.48 170.81 202.66 176.03 202.89 C 182.29 202.61 188.74 203.58 194.85 201.91 C 197.39 201.27 197.21 198.23 197.76 196.21 C 206.60 195.44 215.51 196.94 224.32 195.55 C 224.71 193.51 225.12 191.46 225.52 189.42 C 228.32 189.36 231.13 189.35 233.93 189.45 C 234.14 188.64 234.54 187.02 234.75 186.21 C 235.17 185.10 235.31 183.80 236.21 182.94 C 238.00 182.70 239.83 182.73 241.64 182.70 C 241.23 182.21 240.82 181.72 240.41 181.23 C 241.33 180.91 242.26 180.59 243.18 180.26 C 243.23 179.78 243.32 178.83 243.36 178.35 C 242.98 177.73 242.21 176.48 241.82 175.86 C 237.13 175.63 232.37 176.16 227.74 175.26 C 227.48 169.63 226.81 163.96 224.41 158.77 C 221.70 150.89 215.49 144.66 208.18 140.89 C 203.18 138.43 197.92 135.69 192.17 136.08 C 187.01 136.31 181.67 135.96 176.74 137.75 M 321.96 138.97 C 318.47 141.99 316.35 146.55 317.73 151.17 C 315.88 152.14 313.75 152.82 312.31 154.40 C 311.97 157.94 313.37 161.57 312.16 165.04 C 309.11 174.09 305.55 182.95 301.70 191.68 C 301.07 193.58 299.57 195.93 301.29 197.71 C 304.45 202.47 310.86 200.39 315.63 200.67 C 316.26 199.81 316.90 198.96 317.55 198.11 C 317.25 197.87 316.65 197.38 316.35 197.13 C 316.58 196.53 317.05 195.33 317.28 194.73 C 316.19 192.95 314.94 190.97 315.69 188.80 C 318.22 178.86 323.75 170.04 327.61 160.61 C 329.15 157.40 327.64 153.95 327.76 150.62 C 329.35 148.65 332.00 147.31 332.53 144.65 C 333.18 141.81 330.89 139.53 329.64 137.23 C 327.05 137.45 323.88 136.73 321.96 138.97 M 107.44 155.82 C 107.29 156.16 106.98 156.83 106.83 157.17 C 108.30 159.46 111.45 161.57 110.43 164.66 C 108.13 174.42 104.69 183.85 101.16 193.21 C 99.92 195.96 100.78 199.17 102.63 201.42 C 106.99 203.18 111.90 202.06 116.33 201.11 C 118.32 200.83 119.08 198.90 119.35 197.15 C 117.87 195.18 115.72 193.77 114.46 191.63 C 114.27 186.58 116.28 181.76 118.19 177.18 C 120.16 173.06 121.89 168.47 125.58 165.55 C 128.32 164.48 130.44 167.36 132.95 167.95 C 135.15 167.19 136.71 165.23 137.21 162.99 C 138.10 159.54 139.06 155.34 136.58 152.30 C 132.87 150.76 129.24 153.05 125.98 154.61 C 123.33 153.35 120.54 152.16 117.55 152.23 C 113.96 152.25 109.26 152.01 107.44 155.82 M 349.00 161.05 C 343.27 164.35 340.16 170.43 337.31 176.13 C 335.35 181.00 333.73 186.32 334.47 191.62 C 335.28 197.19 340.01 202.42 345.93 202.26 C 349.79 202.21 354.64 202.46 357.04 198.79 C 359.42 198.91 361.63 197.87 363.45 196.41 C 366.91 193.67 371.16 190.80 371.21 185.88 C 369.51 185.81 367.81 185.62 366.12 185.84 C 362.52 187.48 360.28 191.82 355.92 191.74 C 353.44 191.82 349.64 192.26 348.79 189.18 C 345.68 182.50 349.03 175.26 352.58 169.52 C 356.34 163.67 363.31 160.28 370.22 160.68 C 372.71 160.93 374.99 162.48 377.50 162.43 C 379.35 161.44 380.56 159.62 381.98 158.12 C 381.17 156.62 380.44 155.07 379.53 153.64 C 377.39 151.14 373.90 151.31 370.94 151.70 C 363.07 153.23 355.47 156.25 349.00 161.05 M 402.68 159.59 C 390.59 165.48 382.23 178.56 382.17 192.03 C 381.88 197.27 386.68 202.34 392.03 201.80 C 400.42 201.78 405.64 193.97 413.31 191.85 C 413.91 194.32 413.95 197.30 416.23 198.93 C 416.46 199.17 416.92 199.65 417.16 199.90 C 417.56 201.15 418.67 201.85 419.99 201.64 C 423.49 201.40 427.03 199.92 429.47 197.36 C 431.25 193.78 426.03 191.57 426.71 188.01 C 427.39 180.96 428.49 173.83 431.07 167.19 C 432.41 163.34 436.31 161.33 438.25 157.88 C 438.56 156.04 437.33 154.14 435.95 153.02 C 432.24 151.28 427.97 151.53 423.97 151.56 C 416.15 151.63 409.30 155.90 402.68 159.59 Z" />
<path fill="#010101" opacity="1.00" d=" M 0.00 120.49 C 3.27 119.58 6.59 118.70 9.99 118.57 C 13.82 118.45 17.43 119.91 21.07 120.86 C 25.90 122.17 30.83 123.00 35.73 123.99 C 29.56 127.70 21.55 128.99 17.17 135.18 C 15.61 137.12 15.50 140.83 18.33 141.67 C 24.06 143.58 29.85 140.73 35.44 139.65 C 44.84 137.81 54.06 135.11 63.57 133.88 C 64.86 148.62 64.05 163.45 65.28 178.20 C 65.51 189.37 65.56 200.55 65.98 211.71 C 43.99 211.30 21.99 211.61 0.00 211.55 L 0.00 120.49 M 32.44 183.47 C 31.71 185.83 32.85 188.71 35.27 189.55 C 36.36 189.31 37.36 188.80 38.41 188.43 C 39.39 188.81 40.38 189.17 41.37 189.53 C 40.48 187.13 39.96 184.47 38.32 182.43 C 36.48 180.84 33.92 181.95 32.44 183.47 Z" />
<path fill="#010101" opacity="1.00" d=" M 0.00 218.02 C 22.10 218.08 44.20 217.97 66.31 218.07 C 66.47 222.81 66.55 227.56 66.52 232.32 C 61.07 233.13 55.04 233.28 50.42 236.65 C 48.08 238.70 51.56 240.68 53.16 241.77 C 54.00 241.99 54.84 242.19 55.69 242.37 C 58.44 242.98 61.20 243.53 64.01 243.74 C 64.50 247.12 65.40 250.46 65.52 253.90 C 65.41 257.96 64.23 261.90 64.05 265.96 C 63.68 270.56 64.69 275.11 64.97 279.69 C 65.17 282.15 63.64 284.24 62.63 286.36 C 65.87 294.56 64.06 303.45 64.85 312.00 L 0.00 312.00 L 0.00 258.97 C 1.42 258.49 2.85 258.09 4.27 257.63 C 2.85 257.48 1.43 257.33 0.00 257.20 L 0.00 240.65 C 6.10 240.49 12.25 241.09 18.29 240.10 C 12.24 239.24 6.09 239.82 0.00 239.66 L 0.00 227.00 C 7.69 227.01 15.37 226.98 23.06 227.05 C 25.33 227.07 27.63 227.01 29.81 226.33 C 19.91 225.52 9.93 226.22 0.00 225.99 L 0.00 221.43 C 5.88 221.19 11.87 222.07 17.67 220.85 C 11.82 220.00 5.89 220.54 0.00 220.41 L 0.00 218.02 M 24.67 220.29 C 34.19 220.81 43.81 220.87 53.33 220.28 C 48.71 218.84 43.76 219.91 39.00 219.59 C 34.25 219.89 29.29 218.85 24.67 220.29 M 33.64 226.50 C 38.59 227.16 43.63 226.98 48.59 226.63 C 46.60 225.47 44.25 225.76 42.05 225.73 C 39.24 225.81 36.31 225.43 33.64 226.50 Z" />
<path fill="#010101" opacity="1.00" d=" M 74.03 217.71 C 129.90 217.49 185.77 217.82 241.63 217.55 C 241.78 218.25 242.08 219.65 242.23 220.35 C 242.04 221.11 241.67 222.64 241.49 223.40 C 244.52 223.43 247.55 223.45 250.57 223.15 L 251.57 222.97 C 251.65 221.18 251.64 219.38 251.64 217.59 C 334.43 217.71 417.21 217.61 500.00 217.64 L 500.00 220.38 C 445.99 220.38 391.99 220.39 337.98 220.38 C 336.15 220.38 334.33 220.52 332.53 220.76 C 334.27 221.17 336.06 221.39 337.86 221.39 C 391.91 221.37 445.95 221.38 500.00 221.38 L 500.00 224.00 C 468.67 224.03 437.33 223.97 406.00 223.99 C 397.03 224.22 388.01 223.48 379.08 224.39 C 380.68 224.80 382.32 225.09 383.99 225.10 C 422.66 224.99 461.33 225.11 500.00 225.09 L 500.00 228.74 C 487.30 228.74 474.59 228.78 461.89 228.71 C 459.82 228.69 457.76 228.88 455.73 229.22 C 470.45 230.23 485.25 229.42 500.00 229.68 L 500.00 247.00 C 494.64 247.09 489.26 246.63 483.93 247.33 C 489.15 248.78 494.65 247.77 500.00 248.01 L 500.00 312.00 L 73.64 312.00 C 73.40 305.70 73.75 299.25 71.57 293.22 C 72.17 291.83 72.88 290.47 73.21 288.99 C 72.35 285.34 70.53 282.00 69.38 278.44 C 70.70 277.92 72.02 277.42 73.34 276.92 C 72.98 270.73 73.87 264.47 72.76 258.33 C 72.21 255.68 72.20 252.95 72.80 250.31 C 73.24 248.16 73.67 246.00 74.10 243.85 C 77.79 243.83 81.67 243.90 84.93 241.88 C 81.25 241.40 77.53 241.45 73.83 241.24 C 76.43 241.03 79.01 240.59 81.56 240.02 C 81.56 239.27 81.58 237.77 81.59 237.02 C 79.04 236.23 76.44 235.61 73.86 234.97 C 76.23 234.66 78.60 234.31 80.94 233.86 C 78.73 233.22 76.51 232.60 74.23 232.29 C 74.22 227.43 74.26 222.57 74.03 217.71 M 76.71 220.28 C 78.45 220.54 80.20 220.64 81.96 220.64 C 132.85 220.57 183.74 220.71 234.63 220.57 C 234.62 220.32 234.59 219.81 234.57 219.55 C 183.02 219.65 131.47 219.56 79.92 219.60 C 78.81 219.59 77.75 219.94 76.71 220.28 M 259.60 220.28 C 264.71 220.94 269.87 220.51 275.00 220.62 C 282.52 220.46 290.07 220.99 297.57 220.30 C 296.46 219.84 295.28 219.53 294.07 219.58 C 284.01 219.57 273.95 219.63 263.89 219.56 C 262.43 219.53 260.94 219.66 259.60 220.28 M 295.24 227.85 C 292.46 229.68 292.69 233.51 292.54 236.44 C 298.68 236.93 304.10 232.49 310.23 233.75 C 307.99 246.22 303.92 258.45 297.26 269.27 C 294.01 273.42 286.98 274.62 286.47 280.76 C 287.61 283.15 289.88 284.70 291.88 286.32 C 298.00 290.26 300.70 297.29 305.79 302.22 C 306.36 301.83 307.48 301.05 308.05 300.66 C 306.85 297.79 305.53 294.91 303.42 292.58 C 300.29 289.13 297.32 285.16 292.77 283.50 C 293.38 279.98 296.84 278.41 299.32 276.34 C 306.11 271.13 310.01 263.30 313.99 255.95 C 317.55 250.47 325.09 250.67 330.60 252.62 C 330.66 255.56 330.83 258.50 331.21 261.43 C 329.93 265.34 329.57 269.48 329.74 273.58 C 333.99 273.42 338.39 273.93 342.50 272.58 C 341.08 269.74 338.98 266.85 339.51 263.49 C 340.59 253.86 343.69 244.27 349.43 236.38 C 351.60 233.28 355.84 231.52 356.18 227.35 C 352.18 226.62 347.40 224.92 343.87 227.84 C 338.69 232.06 336.15 238.61 334.37 244.86 C 329.27 245.76 324.11 244.98 319.03 244.30 C 320.56 239.91 322.74 235.50 322.53 230.74 C 322.51 229.18 321.48 227.56 319.82 227.42 C 311.72 225.67 303.34 226.79 295.24 227.85 M 88.33 228.53 C 93.51 229.40 98.78 228.91 104.00 229.02 C 161.00 229.02 218.01 229.00 275.01 229.03 C 276.86 229.01 278.70 228.85 280.53 228.56 C 279.09 228.03 277.59 227.62 276.05 227.68 C 214.70 227.74 153.34 227.70 91.99 227.71 C 90.73 227.78 89.51 228.06 88.33 228.53 M 82.78 233.61 C 84.44 235.56 87.09 235.83 89.28 236.87 C 89.98 238.05 90.36 239.38 90.84 240.66 C 91.20 240.54 91.92 240.31 92.29 240.19 C 92.41 238.96 92.53 237.74 92.65 236.53 C 89.54 235.04 86.28 233.70 82.78 233.61 M 103.41 239.59 C 107.57 240.26 111.80 239.95 116.00 240.00 C 162.34 240.00 208.67 240.00 255.01 240.00 C 259.03 239.97 263.08 240.21 267.09 239.66 C 265.79 239.05 264.43 238.73 263.02 238.73 C 211.01 238.75 159.01 238.74 107.01 238.74 C 105.76 238.81 104.56 239.09 103.41 239.59 M 374.31 243.39 C 366.74 242.70 360.52 247.57 354.89 251.90 C 349.92 256.53 345.29 263.41 347.29 270.50 C 349.40 275.16 355.36 276.58 359.93 275.00 C 367.49 272.49 375.66 269.09 379.89 261.91 C 381.99 257.62 384.41 252.16 381.43 247.68 C 380.14 244.93 377.40 243.08 374.31 243.39 M 464.37 243.76 C 459.13 244.44 454.49 247.19 450.38 250.38 C 447.67 252.58 443.93 254.17 442.85 257.79 C 441.63 261.62 439.87 265.59 440.32 269.69 C 441.97 272.86 445.01 276.17 448.91 275.88 C 455.64 275.74 462.29 272.63 466.12 266.98 C 464.03 266.02 461.73 264.43 459.36 265.45 C 457.90 266.30 456.95 267.78 455.83 269.01 C 453.93 268.03 450.40 267.33 451.39 264.42 C 451.82 261.94 454.72 262.14 456.60 261.58 C 460.87 260.99 464.43 258.34 467.40 255.37 C 469.56 253.30 471.23 250.22 470.26 247.17 C 469.00 245.24 466.80 243.49 464.37 243.76 M 384.77 247.79 C 385.61 250.01 387.39 252.26 386.65 254.75 C 385.01 260.45 381.60 265.79 381.67 271.89 C 382.32 273.19 383.52 274.37 385.04 274.52 C 389.17 274.99 392.85 272.54 396.85 272.07 C 398.80 272.80 400.47 274.21 402.54 274.67 C 405.79 275.20 408.93 273.89 411.93 272.81 C 411.04 270.00 409.76 267.13 410.20 264.11 C 410.97 258.49 415.53 254.07 415.65 248.28 C 416.40 243.86 409.81 243.09 407.31 245.31 C 403.78 249.87 404.30 256.31 400.82 260.91 C 398.91 263.48 395.92 264.82 393.08 266.07 C 394.20 260.76 397.54 256.36 399.29 251.30 C 399.97 249.26 400.22 246.07 397.74 245.18 C 393.35 243.84 387.57 243.34 384.77 247.79 M 418.23 256.72 C 419.23 261.85 424.75 263.19 428.67 265.41 C 429.29 267.53 426.43 268.33 424.83 268.55 C 422.28 268.20 420.33 266.21 417.98 265.27 C 414.79 266.06 413.50 269.31 413.05 272.24 C 413.51 271.86 414.41 271.11 414.87 270.73 L 414.41 271.47 C 415.35 272.81 415.90 274.93 417.83 275.10 C 422.55 276.03 427.85 275.94 431.88 272.97 C 436.28 270.29 440.77 265.17 438.32 259.70 C 435.93 256.03 431.13 255.31 427.39 253.58 C 427.36 252.99 427.30 251.79 427.27 251.20 C 431.28 249.68 435.02 251.75 438.82 252.79 C 440.61 251.37 441.25 249.08 442.14 247.07 C 438.96 245.43 435.65 243.72 432.00 243.62 C 424.90 242.92 417.69 249.54 418.23 256.72 M 127.67 257.99 L 127.66 259.02 C 165.77 258.99 203.88 259.02 241.99 259.01 C 245.15 258.98 248.34 259.22 251.49 258.71 C 250.37 258.28 249.23 258.04 248.04 257.99 C 207.92 257.99 167.79 258.00 127.67 257.99 M 154.46 287.92 C 156.29 288.13 158.14 288.27 159.99 288.28 C 180.66 288.26 201.33 288.27 222.00 288.27 C 226.22 288.24 230.45 288.49 234.65 287.94 C 233.55 287.10 232.33 286.69 230.97 286.71 C 206.96 286.71 182.95 286.73 158.95 286.70 C 157.37 286.65 155.74 286.94 154.46 287.92 M 329.53 288.55 C 325.98 293.58 329.92 299.86 334.04 303.19 C 335.35 299.89 335.84 296.33 337.01 292.99 C 338.08 291.44 339.60 290.28 340.95 288.99 C 337.19 288.44 333.29 287.58 329.53 288.55 M 349.35 291.35 C 348.07 294.94 349.40 298.75 350.29 302.27 C 353.52 300.88 354.29 297.42 355.57 294.50 C 356.34 292.21 359.34 291.88 361.28 292.78 C 366.68 295.06 370.89 299.38 376.21 301.82 C 374.99 299.48 373.40 297.31 371.21 295.79 C 367.04 292.74 362.61 289.84 357.64 288.31 C 354.64 287.29 350.87 288.50 349.35 291.35 M 380.27 289.70 C 380.58 290.18 381.18 291.13 381.49 291.61 C 381.64 293.59 381.16 295.89 382.55 297.55 C 384.77 300.35 386.87 304.03 390.86 304.25 C 391.76 301.24 391.48 298.11 390.11 295.29 C 391.46 295.03 392.81 294.77 394.16 294.51 C 398.16 296.80 402.23 299.35 407.02 299.32 C 406.50 297.10 405.93 294.89 405.33 292.70 C 407.20 292.11 409.06 291.47 410.91 290.82 C 408.02 288.19 403.76 288.32 400.16 288.98 C 398.46 290.01 397.17 291.55 395.79 292.96 C 392.74 291.43 389.83 289.56 386.58 288.45 C 384.41 287.75 382.31 289.12 380.27 289.70 M 414.80 289.02 C 415.00 291.27 415.53 293.49 416.66 295.48 C 418.52 294.06 420.25 292.39 422.43 291.46 C 424.58 290.84 426.90 291.49 428.83 292.52 C 428.45 294.36 429.09 296.98 427.12 298.04 C 424.58 299.76 421.48 301.34 421.71 304.92 C 426.40 305.27 431.51 305.33 435.62 302.66 C 437.34 301.84 437.46 299.71 437.18 298.07 C 436.90 295.68 434.62 294.45 432.95 293.08 C 428.51 287.93 421.00 287.44 414.80 289.02 M 444.91 288.89 C 440.20 290.93 442.04 299.47 446.87 299.29 C 448.48 297.22 448.79 294.38 450.54 292.45 C 454.83 290.22 458.64 294.20 462.27 295.96 C 461.82 293.93 461.17 291.78 459.09 290.90 C 454.86 288.75 449.52 287.00 444.91 288.89 Z" />
</g>
<g id="#bf9bbdff">
<path fill="#bf9bbd" opacity="1.00" d=" M 100.39 22.32 C 104.98 15.87 112.05 11.46 119.37 8.70 C 125.03 6.44 131.14 8.89 135.80 12.22 C 139.40 14.83 139.96 19.80 143.40 22.56 C 146.84 25.48 150.25 28.64 152.11 32.85 C 151.73 33.46 150.96 34.69 150.58 35.31 C 149.80 33.85 149.03 32.38 148.18 30.96 C 146.60 27.94 143.91 25.78 141.49 23.46 C 138.65 20.81 138.16 16.44 135.00 14.04 C 131.63 11.35 127.47 9.06 123.01 9.63 C 118.34 10.28 114.31 12.94 110.43 15.43 C 105.23 18.91 100.34 23.81 99.19 30.19 C 97.50 36.94 98.24 44.60 102.88 50.05 C 109.22 58.01 115.36 67.89 113.22 78.53 C 112.65 80.57 111.91 84.24 109.11 83.72 C 107.03 83.71 105.98 81.63 104.73 80.30 C 99.54 73.40 91.31 69.23 82.89 67.86 C 77.04 66.84 71.10 67.93 65.21 67.64 C 70.63 64.75 77.04 65.32 82.91 66.08 C 88.83 66.86 94.26 69.44 99.65 71.86 C 96.73 68.26 93.44 64.71 89.05 62.94 C 78.71 58.65 66.91 58.93 56.33 62.21 C 47.66 64.76 40.12 70.00 33.01 75.42 C 35.63 75.43 38.26 75.48 40.85 75.89 C 35.85 77.75 30.15 77.46 25.54 80.44 C 14.18 87.56 5.62 98.54 0.00 110.61 L 0.00 105.97 C 5.92 95.43 13.58 85.39 24.12 79.14 C 31.28 75.64 36.74 69.58 43.77 65.85 C 54.02 59.73 66.16 56.78 78.06 58.22 C 88.51 58.92 98.80 64.87 103.58 74.36 C 105.09 77.29 106.95 80.02 109.15 82.48 C 110.55 80.22 111.83 77.76 111.73 75.03 C 111.77 66.45 107.55 58.37 101.98 52.06 C 94.60 44.10 94.99 31.23 100.39 22.32 Z" />
</g>
<g id="#040204ff">
<path fill="#040204" opacity="1.00" d=" M 110.43 15.43 C 114.31 12.94 118.34 10.28 123.01 9.63 C 127.47 9.06 131.63 11.35 135.00 14.04 C 138.16 16.44 138.65 20.81 141.49 23.46 C 143.91 25.78 146.60 27.94 148.18 30.96 C 146.49 29.48 144.64 28.21 142.70 27.10 C 144.39 30.42 147.05 33.19 148.43 36.68 C 149.47 39.45 148.06 42.20 146.82 44.62 C 143.45 40.83 141.08 35.89 136.65 33.21 C 130.31 31.65 123.67 30.49 118.01 27.03 C 115.62 25.36 114.37 22.62 112.67 20.33 C 112.85 22.21 113.24 24.08 113.24 25.97 C 112.65 28.39 111.13 30.51 110.79 33.00 C 111.01 35.40 112.10 37.61 113.31 39.65 C 121.01 51.45 128.79 64.43 128.59 79.01 C 128.51 86.40 129.41 95.07 123.89 100.90 C 117.11 107.87 107.14 109.72 98.22 112.49 C 90.82 114.94 82.61 115.26 75.92 119.60 C 75.04 120.52 74.21 121.48 73.40 122.46 C 66.92 123.69 60.35 122.67 53.82 122.61 C 44.44 122.61 34.10 121.74 26.77 115.18 C 22.32 111.58 20.29 106.09 16.89 101.66 C 18.09 110.08 24.32 116.44 31.07 121.01 C 25.36 120.53 20.00 118.40 14.41 117.29 C 14.92 115.01 15.47 112.75 15.99 110.48 C 11.60 111.00 7.35 112.53 3.89 115.32 C 2.56 116.26 1.25 117.23 0.00 118.27 L 0.00 110.61 C 5.62 98.54 14.18 87.56 25.54 80.44 C 30.15 77.46 35.85 77.75 40.85 75.89 C 38.26 75.48 35.63 75.43 33.01 75.42 C 40.12 70.00 47.66 64.76 56.33 62.21 C 66.91 58.93 78.71 58.65 89.05 62.94 C 93.44 64.71 96.73 68.26 99.65 71.86 C 94.26 69.44 88.83 66.86 82.91 66.08 C 77.04 65.32 70.63 64.75 65.21 67.64 C 71.10 67.93 77.04 66.84 82.89 67.86 C 91.31 69.23 99.54 73.40 104.73 80.30 C 105.98 81.63 107.03 83.71 109.11 83.72 C 111.91 84.24 112.65 80.57 113.22 78.53 C 115.36 67.89 109.22 58.01 102.88 50.05 C 98.24 44.60 97.50 36.94 99.19 30.19 C 100.34 23.81 105.23 18.91 110.43 15.43 M 43.01 78.29 C 42.08 79.62 41.11 80.93 40.11 82.21 C 37.19 82.14 34.31 81.65 31.41 81.32 C 31.40 81.95 31.39 83.22 31.39 83.85 C 33.38 85.24 35.55 86.34 37.85 87.14 C 37.72 86.21 37.58 85.28 37.45 84.35 C 42.43 84.56 47.11 82.54 52.03 82.15 C 51.45 81.42 50.84 80.71 50.22 80.02 C 47.82 79.41 45.43 78.80 43.01 78.29 M 39.98 93.35 C 41.42 104.21 52.89 110.36 62.94 111.04 C 76.74 111.51 89.86 106.20 102.45 101.14 C 102.45 100.66 102.46 99.68 102.47 99.19 C 89.62 104.50 76.23 110.10 62.03 109.18 C 53.87 108.51 45.99 103.93 42.27 96.49 C 43.99 96.39 45.70 96.32 47.42 96.24 C 47.54 95.90 47.76 95.24 47.88 94.91 C 45.20 94.65 42.58 94.05 39.98 93.35 Z" />
</g>
<g id="#fbfaf5ff">
<path fill="#fbfaf5" opacity="1.00" d=" M 361.03 13.50 C 362.04 12.65 364.23 13.30 363.77 14.87 C 363.18 17.14 359.13 15.24 361.03 13.50 Z" />
<path fill="#fbfaf5" opacity="1.00" d=" M 432.10 21.66 C 447.07 25.98 457.74 41.52 456.62 57.01 C 457.49 76.91 438.84 94.99 419.01 93.65 C 408.44 94.23 398.15 88.79 391.64 80.63 C 392.64 81.01 393.65 81.38 394.66 81.75 C 404.84 85.42 416.63 84.23 425.96 78.80 C 432.28 74.97 436.82 68.81 440.25 62.38 C 444.18 55.91 444.31 47.98 443.09 40.72 C 442.30 36.24 440.31 32.03 437.38 28.56 C 435.62 26.26 433.88 23.94 432.10 21.66 Z" />
<path fill="#fbfaf5" opacity="1.00" d=" M 209.79 75.07 C 211.26 76.23 213.03 77.49 212.11 79.60 C 211.51 78.58 210.94 77.53 210.42 76.47 C 210.26 76.12 209.95 75.42 209.79 75.07 Z" />
<path fill="#fbfaf5" opacity="1.00" d=" M 419.03 133.41 C 420.39 132.31 422.50 134.46 420.85 135.55 C 419.49 136.67 417.39 134.47 419.03 133.41 Z" />
<path fill="#fbfaf5" opacity="1.00" d=" M 33.64 226.50 C 36.31 225.43 39.24 225.81 42.05 225.73 C 44.25 225.76 46.60 225.47 48.59 226.63 C 43.63 226.98 38.59 227.16 33.64 226.50 Z" />
<path fill="#fbfaf5" opacity="1.00" d=" M 455.73 229.22 C 457.76 228.88 459.82 228.69 461.89 228.71 C 474.59 228.78 487.30 228.74 500.00 228.74 L 500.00 229.68 C 485.25 229.42 470.45 230.23 455.73 229.22 Z" />
<path fill="#fbfaf5" opacity="1.00" d=" M 0.00 239.66 C 6.09 239.82 12.24 239.24 18.29 240.10 C 12.25 241.09 6.10 240.49 0.00 240.65 L 0.00 239.66 Z" />
<path fill="#fbfaf5" opacity="1.00" d=" M 0.00 257.20 C 1.43 257.33 2.85 257.48 4.27 257.63 C 2.85 258.09 1.42 258.49 0.00 258.97 L 0.00 257.20 Z" />
</g>
<g id="#5a5c0dff">
<path fill="#5a5c0d" opacity="1.00" d=" M 430.59 18.40 C 437.97 18.07 445.03 21.63 449.92 27.03 C 457.14 34.80 462.16 45.26 461.59 56.04 C 461.45 64.59 458.94 73.17 454.19 80.29 C 448.53 87.32 441.50 93.73 432.74 96.50 C 421.12 100.37 407.95 98.44 397.41 92.45 C 393.46 89.98 388.61 86.40 389.35 81.11 C 388.99 78.87 391.30 77.62 393.22 77.51 C 399.07 76.61 404.67 80.13 410.50 78.83 C 417.87 77.25 425.33 74.21 430.35 68.35 C 437.14 60.66 440.45 49.23 436.83 39.37 C 435.35 34.57 432.15 30.59 430.15 26.03 C 428.97 23.56 430.14 20.89 430.59 18.40 M 432.10 21.66 C 433.88 23.94 435.62 26.26 437.38 28.56 C 437.73 30.42 438.21 32.27 439.03 33.98 C 440.24 43.68 442.14 54.29 437.29 63.33 C 432.67 69.87 427.16 76.51 419.43 79.38 C 411.40 82.04 402.69 78.91 394.66 81.75 C 393.65 81.38 392.64 81.01 391.64 80.63 C 398.15 88.79 408.44 94.23 419.01 93.65 C 438.84 94.99 457.49 76.91 456.62 57.01 C 457.74 41.52 447.07 25.98 432.10 21.66 Z" />
</g>
<g id="#ad8fadff">
<path fill="#ad8fad" opacity="1.00" d=" M 112.67 20.33 C 114.37 22.62 115.62 25.36 118.01 27.03 C 123.67 30.49 130.31 31.65 136.65 33.21 C 141.08 35.89 143.45 40.83 146.82 44.62 C 146.56 45.18 146.04 46.29 145.78 46.85 C 142.62 42.84 139.93 38.34 136.01 35.01 C 133.58 34.04 130.95 33.76 128.44 33.05 C 123.38 31.82 118.67 29.00 113.32 29.18 C 113.11 32.46 113.25 35.92 115.22 38.72 C 119.85 45.98 124.13 53.50 127.35 61.51 C 131.09 72.12 131.58 83.79 129.32 94.78 C 127.33 102.66 120.22 107.94 112.69 110.07 C 104.81 112.62 96.95 115.32 88.78 116.78 C 84.86 117.45 81.06 118.75 77.65 120.81 C 83.03 120.38 88.17 118.65 93.36 117.33 C 101.88 115.19 110.52 113.55 119.23 112.36 C 123.61 111.98 128.06 110.95 132.45 111.73 C 138.84 114.20 138.76 124.03 134.12 128.15 C 132.26 130.16 129.40 129.70 126.95 129.72 C 126.98 126.27 130.07 122.83 128.60 119.58 C 123.14 118.30 117.45 120.31 111.91 120.51 C 111.86 120.16 111.76 119.47 111.71 119.12 C 116.66 118.07 121.73 117.37 126.80 117.38 C 128.66 117.38 131.40 117.94 131.50 120.25 C 131.23 123.09 129.93 125.71 129.21 128.45 C 132.83 127.14 135.88 124.03 135.85 119.98 C 135.83 116.48 132.84 112.90 129.08 113.52 C 110.83 114.45 92.96 118.74 75.55 124.07 C 75.66 122.58 75.79 121.09 75.92 119.60 C 82.61 115.26 90.82 114.94 98.22 112.49 C 107.14 109.72 117.11 107.87 123.89 100.90 C 129.41 95.07 128.51 86.40 128.59 79.01 C 128.79 64.43 121.01 51.45 113.31 39.65 C 112.10 37.61 111.01 35.40 110.79 33.00 C 111.13 30.51 112.65 28.39 113.24 25.97 C 113.24 24.08 112.85 22.21 112.67 20.33 Z" />
</g>
<g id="#f1a6efff">
<path fill="#f1a6ef" opacity="1.00" d=" M 142.70 27.10 C 144.64 28.21 146.49 29.48 148.18 30.96 C 149.03 32.38 149.80 33.85 150.58 35.31 C 150.96 34.69 151.73 33.46 152.11 32.85 C 154.45 39.41 153.61 46.69 150.37 52.79 C 148.80 50.83 147.28 48.85 145.78 46.85 C 146.04 46.29 146.56 45.18 146.82 44.62 C 148.06 42.20 149.47 39.45 148.43 36.68 C 147.05 33.19 144.39 30.42 142.70 27.10 Z" />
</g>
<g id="#cace75ff">
<path fill="#cace75" opacity="1.00" d=" M 437.38 28.56 C 440.31 32.03 442.30 36.24 443.09 40.72 C 444.31 47.98 444.18 55.91 440.25 62.38 C 442.44 53.09 444.21 42.65 439.03 33.98 C 438.21 32.27 437.73 30.42 437.38 28.56 Z" />
</g>
<g id="#8a9112ff">
<path fill="#8a9112" opacity="1.00" d=" M 439.03 33.98 C 444.21 42.65 442.44 53.09 440.25 62.38 C 436.82 68.81 432.28 74.97 425.96 78.80 C 416.63 84.23 404.84 85.42 394.66 81.75 C 402.69 78.91 411.40 82.04 419.43 79.38 C 427.16 76.51 432.67 69.87 437.29 63.33 C 442.14 54.29 440.24 43.68 439.03 33.98 Z" />
</g>
<g id="#292f30ff">
<path fill="#292f30" opacity="1.00" d=" M 207.70 78.07 C 208.38 77.67 209.74 76.87 210.42 76.47 C 210.94 77.53 211.51 78.58 212.11 79.60 C 211.72 80.75 211.32 81.90 210.95 83.06 C 209.79 81.45 208.60 79.84 207.70 78.07 Z" />
<path fill="#292f30" opacity="1.00" d=" M 210.43 147.41 C 213.08 149.51 215.51 151.92 217.39 154.75 C 214.86 152.50 212.52 150.06 210.43 147.41 Z" />
<path fill="#292f30" opacity="1.00" d=" M 444.91 288.89 C 449.52 287.00 454.86 288.75 459.09 290.90 C 461.17 291.78 461.82 293.93 462.27 295.96 C 458.64 294.20 454.83 290.22 450.54 292.45 C 448.79 294.38 448.48 297.22 446.87 299.29 C 442.04 299.47 440.20 290.93 444.91 288.89 Z" />
</g>
<g id="#765171ff">
<path fill="#765171" opacity="1.00" d=" M 43.01 78.29 C 45.43 78.80 47.82 79.41 50.22 80.02 C 50.31 80.47 50.50 81.37 50.59 81.82 C 47.15 80.03 43.51 80.80 40.11 82.21 C 41.11 80.93 42.08 79.62 43.01 78.29 Z" />
</g>
<g id="#bd8fb6ff">
<path fill="#bd8fb6" opacity="1.00" d=" M 40.11 82.21 C 43.51 80.80 47.15 80.03 50.59 81.82 C 50.50 81.37 50.31 80.47 50.22 80.02 C 50.84 80.71 51.45 81.42 52.03 82.15 C 47.11 82.54 42.43 84.56 37.45 84.35 C 37.58 85.28 37.72 86.21 37.85 87.14 C 35.55 86.34 33.38 85.24 31.39 83.85 C 31.39 83.22 31.40 81.95 31.41 81.32 C 34.31 81.65 37.19 82.14 40.11 82.21 Z" />
</g>
<g id="#cbaeccff">
<path fill="#cbaecc" opacity="1.00" d=" M 39.98 93.35 C 42.58 94.05 45.20 94.65 47.88 94.91 C 47.76 95.24 47.54 95.90 47.42 96.24 C 45.70 96.32 43.99 96.39 42.27 96.49 C 45.99 103.93 53.87 108.51 62.03 109.18 C 76.23 110.10 89.62 104.50 102.47 99.19 C 102.46 99.68 102.45 100.66 102.45 101.14 C 89.86 106.20 76.74 111.51 62.94 111.04 C 52.89 110.36 41.42 104.21 39.98 93.35 Z" />
<path fill="#cbaecc" opacity="1.00" d=" M 35.35 184.37 C 35.91 184.37 37.02 184.37 37.58 184.36 C 37.58 184.93 37.59 186.06 37.59 186.62 C 37.00 186.66 35.81 186.74 35.21 186.78 C 35.24 186.18 35.32 184.97 35.35 184.37 Z" />
</g>
<g id="#bb89bcff">
<path fill="#bb89bc" opacity="1.00" d=" M 16.89 101.66 C 20.29 106.09 22.32 111.58 26.77 115.18 C 34.10 121.74 44.44 122.61 53.82 122.61 C 60.35 122.67 66.92 123.69 73.40 122.46 C 72.75 123.26 72.11 124.07 71.47 124.88 C 69.38 125.09 67.29 125.27 65.20 125.44 C 66.53 141.92 66.04 158.46 67.07 174.96 C 67.43 187.32 67.61 199.68 68.23 212.03 C 68.25 213.28 68.27 214.54 68.29 215.80 C 69.46 215.84 70.63 215.88 71.81 215.94 C 71.80 214.31 71.79 212.68 71.80 211.05 C 71.81 209.46 71.85 207.87 71.92 206.29 C 72.99 198.57 72.46 190.77 72.62 183.01 C 72.77 172.34 72.64 161.67 72.66 151.00 C 72.70 143.91 72.27 136.79 73.17 129.74 C 73.46 157.05 73.26 184.38 73.78 211.69 C 73.82 213.22 73.87 214.75 73.96 216.28 C 73.97 216.64 74.01 217.35 74.03 217.71 C 74.26 222.57 74.22 227.43 74.23 232.29 C 76.51 232.60 78.73 233.22 80.94 233.86 C 78.60 234.31 76.23 234.66 73.86 234.97 C 76.44 235.61 79.04 236.23 81.59 237.02 C 81.58 237.77 81.56 239.27 81.56 240.02 C 79.01 240.59 76.43 241.03 73.83 241.24 C 70.41 241.11 67.01 240.80 63.61 240.56 C 63.52 239.15 63.40 237.74 63.31 236.33 C 64.28 235.66 65.26 235.00 66.25 234.36 C 61.47 234.74 56.69 235.49 52.16 237.13 C 52.48 238.68 52.82 240.23 53.16 241.77 C 51.56 240.68 48.08 238.70 50.42 236.65 C 55.04 233.28 61.07 233.13 66.52 232.32 C 66.55 227.56 66.47 222.81 66.31 218.07 L 66.27 217.03 L 66.22 215.96 C 66.15 214.54 66.07 213.13 65.98 211.71 C 65.56 200.55 65.51 189.37 65.28 178.20 C 64.05 163.45 64.86 148.62 63.57 133.88 C 54.06 135.11 44.84 137.81 35.44 139.65 C 29.85 140.73 24.06 143.58 18.33 141.67 C 15.50 140.83 15.61 137.12 17.17 135.18 C 21.55 128.99 29.56 127.70 35.73 123.99 C 30.83 123.00 25.90 122.17 21.07 120.86 C 17.43 119.91 13.82 118.45 9.99 118.57 C 6.59 118.70 3.27 119.58 0.00 120.49 L 0.00 118.27 C 1.25 117.23 2.56 116.26 3.89 115.32 C 7.16 116.99 10.84 117.04 14.41 117.29 C 20.00 118.40 25.36 120.53 31.07 121.01 C 24.32 116.44 18.09 110.08 16.89 101.66 M 38.12 125.20 C 33.52 127.24 28.93 129.31 24.37 131.44 C 21.17 132.93 19.00 135.81 17.54 138.93 C 20.14 140.39 23.14 141.13 26.06 140.15 C 38.58 137.07 51.17 134.28 63.77 131.54 C 63.61 130.22 63.44 128.91 63.26 127.60 C 52.34 130.02 41.64 133.29 30.77 135.90 C 28.14 136.54 25.44 136.86 22.74 136.88 C 24.34 135.68 26.06 134.63 27.93 133.91 C 35.27 130.98 42.77 128.39 49.78 124.71 C 45.93 124.27 41.77 123.41 38.12 125.20 M 39.02 131.86 C 44.13 130.84 49.10 129.25 54.20 128.17 C 57.10 127.55 59.99 126.74 62.60 125.30 C 60.17 124.97 57.62 124.28 55.20 125.08 C 49.62 126.84 44.24 129.22 39.02 131.86 M 68.37 217.90 C 68.53 224.43 68.61 230.97 68.81 237.50 C 69.58 237.47 71.14 237.40 71.92 237.37 C 71.86 230.87 71.88 224.36 71.87 217.86 C 70.70 217.87 69.53 217.88 68.37 217.90 M 66.93 239.64 C 70.71 239.80 74.47 239.45 78.24 239.22 C 78.36 238.72 78.61 237.71 78.73 237.21 C 75.20 239.50 70.97 239.39 66.93 239.64 Z" />
</g>
<g id="#1b021cff">
<path fill="#1b021c" opacity="1.00" d=" M 88.78 116.78 C 96.95 115.32 104.81 112.62 112.69 110.07 C 114.85 110.89 117.02 111.69 119.23 112.36 C 110.52 113.55 101.88 115.19 93.36 117.33 C 88.17 118.65 83.03 120.38 77.65 120.81 C 81.06 118.75 84.86 117.45 88.78 116.78 Z" />
<path fill="#1b021c" opacity="1.00" d=" M 75.55 124.07 C 92.96 118.74 110.83 114.45 129.08 113.52 C 132.84 112.90 135.83 116.48 135.85 119.98 C 135.88 124.03 132.83 127.14 129.21 128.45 C 129.93 125.71 131.23 123.09 131.50 120.25 C 131.40 117.94 128.66 117.38 126.80 117.38 C 121.73 117.37 116.66 118.07 111.71 119.12 C 98.75 121.77 85.80 124.46 73.19 128.52 C 73.17 127.57 73.12 125.69 73.10 124.74 C 73.91 124.52 74.73 124.29 75.55 124.07 Z" />
<path fill="#1b021c" opacity="1.00" d=" M 39.02 131.86 C 44.24 129.22 49.62 126.84 55.20 125.08 C 57.62 124.28 60.17 124.97 62.60 125.30 C 59.99 126.74 57.10 127.55 54.20 128.17 C 49.10 129.25 44.13 130.84 39.02 131.86 Z" />
<path fill="#1b021c" opacity="1.00" d=" M 66.93 239.64 C 70.97 239.39 75.20 239.50 78.73 237.21 C 78.61 237.71 78.36 238.72 78.24 239.22 C 74.47 239.45 70.71 239.80 66.93 239.64 Z" />
</g>
<g id="#6d456dff">
<path fill="#6d456d" opacity="1.00" d=" M 3.89 115.32 C 7.35 112.53 11.60 111.00 15.99 110.48 C 15.47 112.75 14.92 115.01 14.41 117.29 C 10.84 117.04 7.16 116.99 3.89 115.32 Z" />
<path fill="#6d456d" opacity="1.00" d=" M 199.97 141.92 C 202.11 142.66 204.21 143.55 206.23 144.61 C 204.14 143.71 202.06 142.81 199.97 141.92 Z" />
<path fill="#6d456d" opacity="1.00" d=" M 159.40 159.83 C 160.68 156.82 162.51 154.07 164.69 151.62 C 163.93 154.93 162.56 158.16 159.40 159.83 Z" />
</g>
<g id="#fdeef4ff">
<path fill="#fdeef4" opacity="1.00" d=" M 73.19 128.52 C 85.80 124.46 98.75 121.77 111.71 119.12 C 111.76 119.47 111.86 120.16 111.91 120.51 C 98.76 122.48 85.90 125.94 73.17 129.74 C 72.27 136.79 72.70 143.91 72.66 151.00 C 72.64 161.67 72.77 172.34 72.62 183.01 C 72.46 190.77 72.99 198.57 71.92 206.29 C 71.76 179.15 72.07 152.01 71.47 124.88 C 72.11 124.07 72.75 123.26 73.40 122.46 C 74.21 121.48 75.04 120.52 75.92 119.60 C 75.79 121.09 75.66 122.58 75.55 124.07 C 74.73 124.29 73.91 124.52 73.10 124.74 C 73.12 125.69 73.17 127.57 73.19 128.52 Z" />
<path fill="#fdeef4" opacity="1.00" d=" M 222.84 167.18 C 223.16 166.03 223.50 164.89 223.86 163.76 C 225.32 168.49 225.40 173.46 225.48 178.37 C 231.44 178.27 237.40 178.39 243.36 178.35 C 243.32 178.83 243.23 179.78 243.18 180.26 C 211.46 180.15 179.73 180.42 148.00 180.19 C 143.47 180.12 138.89 180.46 134.40 179.65 C 133.92 179.43 132.95 178.98 132.47 178.76 L 133.63 178.63 C 140.52 178.05 147.45 178.44 154.36 178.35 C 154.42 174.46 154.25 170.53 154.91 166.68 C 155.39 167.87 155.88 169.07 156.32 170.29 C 156.30 172.25 156.27 174.21 156.36 176.17 C 156.40 176.72 156.50 177.82 156.55 178.36 C 178.78 178.54 201.03 178.46 223.27 178.38 C 223.73 175.50 223.52 172.58 223.13 169.71 C 223.06 169.08 222.91 167.81 222.84 167.18 Z" />
</g>
<g id="#1a031bff">
<path fill="#1a031b" opacity="1.00" d=" M 38.12 125.20 C 41.77 123.41 45.93 124.27 49.78 124.71 C 42.77 128.39 35.27 130.98 27.93 133.91 C 26.06 134.63 24.34 135.68 22.74 136.88 C 25.44 136.86 28.14 136.54 30.77 135.90 C 41.64 133.29 52.34 130.02 63.26 127.60 C 63.44 128.91 63.61 130.22 63.77 131.54 C 51.17 134.28 38.58 137.07 26.06 140.15 C 23.14 141.13 20.14 140.39 17.54 138.93 C 19.00 135.81 21.17 132.93 24.37 131.44 C 28.93 129.31 33.52 127.24 38.12 125.20 Z" />
</g>
<g id="#0c010eff">
<path fill="#0c010e" opacity="1.00" d=" M 65.20 125.44 C 67.29 125.27 69.38 125.09 71.47 124.88 C 72.07 152.01 71.76 179.15 71.92 206.29 C 71.85 207.87 71.81 209.46 71.80 211.05 C 70.61 211.38 69.42 211.70 68.23 212.03 C 67.61 199.68 67.43 187.32 67.07 174.96 C 66.04 158.46 66.53 141.92 65.20 125.44 Z" />
</g>
<g id="#124a51ff">
<path fill="#124a51" opacity="1.00" d=" M 454.33 133.90 C 454.65 132.37 455.36 130.37 457.12 130.08 C 461.39 129.34 465.77 129.50 470.08 129.68 C 474.22 129.47 474.41 135.03 474.05 137.99 C 471.11 148.82 466.40 159.16 464.22 170.22 C 462.59 178.70 459.30 186.92 459.26 195.65 C 458.89 195.41 458.16 194.93 457.80 194.69 C 457.64 192.72 457.60 190.74 457.68 188.78 C 460.25 175.71 463.80 162.84 467.90 150.17 C 469.42 144.01 473.22 138.31 472.20 131.71 C 466.83 131.62 461.46 131.69 456.10 131.95 C 456.17 132.51 456.32 133.64 456.40 134.21 C 458.54 134.93 460.67 135.70 462.75 136.61 C 460.73 150.25 456.46 163.42 452.63 176.63 C 450.55 184.03 447.57 191.13 445.46 198.51 C 445.34 198.97 445.11 199.90 445.00 200.36 C 444.76 198.33 444.38 196.24 444.97 194.24 C 449.88 177.63 455.41 161.18 459.26 144.27 C 459.62 142.37 460.11 140.38 459.65 138.45 C 457.95 136.85 455.65 135.88 454.33 133.90 Z" />
<path fill="#124a51" opacity="1.00" d=" M 321.96 138.97 C 323.88 136.73 327.05 137.45 329.64 137.23 C 330.89 139.53 333.18 141.81 332.53 144.65 C 332.00 147.31 329.35 148.65 327.76 150.62 C 327.64 153.95 329.15 157.40 327.61 160.61 C 323.75 170.04 318.22 178.86 315.69 188.80 C 314.94 190.97 316.19 192.95 317.28 194.73 C 317.05 195.33 316.58 196.53 316.35 197.13 C 315.12 196.05 313.77 195.06 312.81 193.73 C 313.97 181.68 320.76 171.28 325.36 160.36 C 326.44 158.07 326.44 155.53 326.43 153.06 C 321.94 153.48 317.50 154.37 313.02 154.85 C 314.18 157.05 316.23 159.27 315.40 161.97 C 313.19 172.59 307.90 182.19 304.01 192.22 C 303.22 194.21 303.27 196.37 303.17 198.47 C 307.96 198.76 312.78 198.67 317.55 198.11 C 316.90 198.96 316.26 199.81 315.63 200.67 C 310.86 200.39 304.45 202.47 301.29 197.71 C 299.57 195.93 301.07 193.58 301.70 191.68 C 305.55 182.95 309.11 174.09 312.16 165.04 C 313.37 161.57 311.97 157.94 312.31 154.40 C 313.75 152.82 315.88 152.14 317.73 151.17 C 316.35 146.55 318.47 141.99 321.96 138.97 M 326.30 139.18 C 321.88 140.49 318.82 145.17 319.06 149.78 C 323.83 150.88 328.77 148.01 330.68 143.63 C 331.48 141.06 328.95 138.33 326.30 139.18 Z" />
</g>
<g id="#2c2c2cff">
<path fill="#2c2c2c" opacity="1.00" d=" M 275.88 131.00 C 277.40 131.38 278.91 131.77 280.42 132.20 C 279.45 132.89 278.46 133.57 277.38 134.07 C 276.83 133.07 276.33 132.05 275.88 131.00 Z" />
</g>
<g id="#f2f8faff">
<path fill="#f2f8fa" opacity="1.00" d=" M 456.10 131.95 C 461.46 131.69 466.83 131.62 472.20 131.71 C 473.22 138.31 469.42 144.01 467.90 150.17 C 463.80 162.84 460.25 175.71 457.68 188.78 C 457.22 191.09 456.84 193.41 456.46 195.73 C 457.97 196.67 459.49 197.59 461.00 198.56 C 455.87 199.39 450.51 200.14 445.46 198.51 C 447.57 191.13 450.55 184.03 452.63 176.63 C 456.46 163.42 460.73 150.25 462.75 136.61 C 460.67 135.70 458.54 134.93 456.40 134.21 C 456.32 133.64 456.17 132.51 456.10 131.95 Z" />
<path fill="#f2f8fa" opacity="1.00" d=" M 154.91 166.68 C 157.78 152.38 170.14 140.57 184.64 138.69 C 188.21 138.84 191.78 138.87 195.36 138.77 C 208.63 140.72 220.26 150.80 223.86 163.76 C 223.50 164.89 223.16 166.03 222.84 167.18 C 222.20 164.93 221.40 162.73 220.52 160.57 C 219.72 158.51 218.68 156.54 217.39 154.75 C 215.51 151.92 213.08 149.51 210.43 147.41 C 209.14 146.32 207.74 145.37 206.23 144.61 C 204.21 143.55 202.11 142.66 199.97 141.92 C 187.70 137.73 173.12 141.81 164.69 151.62 C 162.51 154.07 160.68 156.82 159.40 159.83 C 157.90 163.16 156.97 166.70 156.32 170.29 C 155.88 169.07 155.39 167.87 154.91 166.68 Z" />
<path fill="#f2f8fa" opacity="1.00" d=" M 24.67 220.29 C 29.29 218.85 34.25 219.89 39.00 219.59 C 43.76 219.91 48.71 218.84 53.33 220.28 C 43.81 220.87 34.19 220.81 24.67 220.29 Z" />
<path fill="#f2f8fa" opacity="1.00" d=" M 76.71 220.28 C 77.75 219.94 78.81 219.59 79.92 219.60 C 131.47 219.56 183.02 219.65 234.57 219.55 C 234.59 219.81 234.62 220.32 234.63 220.57 C 183.74 220.71 132.85 220.57 81.96 220.64 C 80.20 220.64 78.45 220.54 76.71 220.28 Z" />
<path fill="#f2f8fa" opacity="1.00" d=" M 259.60 220.28 C 260.94 219.66 262.43 219.53 263.89 219.56 C 273.95 219.63 284.01 219.57 294.07 219.58 C 295.28 219.53 296.46 219.84 297.57 220.30 C 290.07 220.99 282.52 220.46 275.00 220.62 C 269.87 220.51 264.71 220.94 259.60 220.28 Z" />
<path fill="#f2f8fa" opacity="1.00" d=" M 0.00 220.41 C 5.89 220.54 11.82 220.00 17.67 220.85 C 11.87 222.07 5.88 221.19 0.00 221.43 L 0.00 220.41 Z" />
<path fill="#f2f8fa" opacity="1.00" d=" M 332.53 220.76 C 334.33 220.52 336.15 220.38 337.98 220.38 C 391.99 220.39 445.99 220.38 500.00 220.38 L 500.00 221.38 C 445.95 221.38 391.91 221.37 337.86 221.39 C 336.06 221.39 334.27 221.17 332.53 220.76 Z" />
</g>
<g id="#0c2f38ff">
<path fill="#0c2f38" opacity="1.00" d=" M 176.74 137.75 C 181.67 135.96 187.01 136.31 192.17 136.08 C 197.92 135.69 203.18 138.43 208.18 140.89 C 215.49 144.66 221.70 150.89 224.41 158.77 C 226.81 163.96 227.48 169.63 227.74 175.26 C 232.37 176.16 237.13 175.63 241.82 175.86 C 242.21 176.48 242.98 177.73 243.36 178.35 C 237.40 178.39 231.44 178.27 225.48 178.37 C 225.40 173.46 225.32 168.49 223.86 163.76 C 220.26 150.80 208.63 140.72 195.36 138.77 C 191.82 138.17 188.19 138.12 184.64 138.69 C 170.14 140.57 157.78 152.38 154.91 166.68 C 154.25 170.53 154.42 174.46 154.36 178.35 C 147.45 178.44 140.52 178.05 133.63 178.63 C 133.79 178.06 134.12 176.91 134.28 176.34 C 139.93 174.97 145.83 175.92 151.59 175.69 C 152.36 169.59 152.45 163.16 155.44 157.62 C 160.19 148.99 167.44 141.39 176.74 137.75 Z" />
</g>
<g id="#e6fafdff">
<path fill="#e6fafd" opacity="1.00" d=" M 184.64 138.69 C 188.19 138.12 191.82 138.17 195.36 138.77 C 191.78 138.87 188.21 138.84 184.64 138.69 Z" />
<path fill="#e6fafd" opacity="1.00" d=" M 136.22 185.34 C 139.12 184.91 142.06 184.78 145.00 184.81 C 171.66 184.79 198.33 184.87 225.00 184.78 C 228.27 184.87 231.88 184.22 234.75 186.21 C 233.23 186.41 231.71 186.56 230.19 186.68 C 201.45 186.70 172.71 186.67 143.96 186.69 C 141.32 186.69 138.44 187.07 136.22 185.34 Z" />
<path fill="#e6fafd" opacity="1.00" d=" M 148.87 191.34 C 173.11 191.13 197.35 191.50 221.59 191.15 C 222.69 191.59 223.72 192.18 224.68 192.89 C 221.79 193.14 218.90 193.27 216.00 193.23 C 193.48 193.14 170.95 193.32 148.43 193.13 L 147.32 192.84 C 147.71 192.47 148.48 191.72 148.87 191.34 Z" />
<path fill="#e6fafd" opacity="1.00" d=" M 232.99 216.47 C 236.79 216.29 241.31 217.38 244.22 214.26 C 243.64 216.31 242.90 218.32 242.23 220.35 C 242.08 219.65 241.78 218.25 241.63 217.55 C 185.77 217.82 129.90 217.49 74.03 217.71 C 74.01 217.35 73.97 216.64 73.96 216.28 C 79.63 216.56 85.31 216.42 90.99 216.45 C 138.33 216.46 185.66 216.42 232.99 216.47 Z" />
<path fill="#e6fafd" opacity="1.00" d=" M 250.57 223.15 C 250.76 220.82 250.94 218.49 251.30 216.18 C 253.87 216.35 256.46 216.46 259.04 216.47 C 339.36 216.41 419.68 216.51 500.00 216.42 L 500.00 217.64 C 417.21 217.61 334.43 217.71 251.64 217.59 C 251.64 219.38 251.65 221.18 251.57 222.97 L 250.57 223.15 Z" />
<path fill="#e6fafd" opacity="1.00" d=" M 370.32 246.12 C 374.22 244.79 379.90 246.23 380.43 250.96 C 380.47 257.90 376.33 264.91 370.07 268.06 C 365.63 270.41 361.00 272.76 355.99 273.56 C 352.67 274.30 348.60 271.65 349.20 268.00 C 348.93 263.06 351.17 258.10 355.05 255.04 C 359.63 251.33 364.40 247.35 370.32 246.12 M 365.54 250.42 C 359.64 252.61 354.26 258.36 354.69 264.98 C 355.17 270.07 361.83 270.81 365.43 268.47 C 365.85 268.16 366.70 267.56 367.12 267.26 C 371.33 264.70 374.76 260.27 374.75 255.17 C 374.31 250.98 369.14 248.80 365.54 250.42 Z" />
</g>
<g id="#edf9f9ff">
<path fill="#edf9f9" opacity="1.00" d=" M 326.30 139.18 C 328.95 138.33 331.48 141.06 330.68 143.63 C 328.77 148.01 323.83 150.88 319.06 149.78 C 318.82 145.17 321.88 140.49 326.30 139.18 Z" />
</g>
<g id="#cc0202ff">
<path fill="#cc0202" opacity="1.00" d=" M 164.69 151.62 C 173.12 141.81 187.70 137.73 199.97 141.92 C 202.06 142.81 204.14 143.71 206.23 144.61 C 207.74 145.37 209.14 146.32 210.43 147.41 C 212.52 150.06 214.86 152.50 217.39 154.75 C 218.68 156.54 219.72 158.51 220.52 160.57 C 221.20 165.87 221.73 171.19 221.83 176.53 C 205.56 177.16 189.28 176.66 173.00 176.87 C 167.44 176.99 161.88 176.84 156.36 176.17 C 156.27 174.21 156.30 172.25 156.32 170.29 C 156.97 166.70 157.90 163.16 159.40 159.83 C 162.56 158.16 163.93 154.93 164.69 151.62 Z" />
</g>
<g id="#1b5261ff">
<path fill="#1b5261" opacity="1.00" d=" M 253.51 156.54 C 254.95 151.37 261.56 151.89 265.79 151.59 C 270.87 151.27 270.92 157.26 271.58 160.82 C 277.21 156.95 283.01 152.35 290.18 152.18 C 292.75 151.99 295.87 152.22 297.28 154.74 C 300.90 160.04 300.41 167.16 297.75 172.76 C 292.79 183.51 283.67 192.33 272.67 196.74 C 268.23 198.53 263.29 198.30 258.82 199.92 C 256.56 201.85 256.22 205.08 255.24 207.74 C 254.32 209.15 253.29 210.49 252.31 211.86 C 253.28 206.61 254.96 201.51 256.99 196.58 C 263.24 197.10 269.79 196.64 275.28 193.34 C 282.85 188.88 290.00 182.98 294.06 175.04 C 296.72 169.78 299.12 163.67 297.28 157.75 C 296.69 155.42 294.54 153.52 292.05 153.77 C 282.08 154.12 274.20 160.86 266.81 166.79 C 267.67 162.13 269.33 157.49 268.45 152.69 C 263.43 153.81 258.47 155.19 253.51 156.54 Z" />
<path fill="#1b5261" opacity="1.00" d=" M 408.28 161.26 C 412.63 158.93 417.59 158.14 422.47 158.09 C 422.65 169.92 416.58 181.13 408.04 189.03 C 405.59 191.42 402.34 192.91 398.97 193.39 C 395.54 193.65 393.14 190.14 392.85 187.05 C 392.33 182.36 393.82 177.73 395.39 173.37 C 397.47 167.52 403.02 163.97 408.28 161.26 M 400.54 168.56 C 395.49 174.55 394.48 183.00 395.54 190.55 C 399.29 190.95 403.54 191.17 406.58 188.51 C 414.76 181.54 420.07 170.95 419.74 160.10 C 412.53 160.40 406.08 164.25 400.54 168.56 Z" />
</g>
<g id="#25414cff">
<path fill="#25414c" opacity="1.00" d=" M 107.44 155.82 C 109.26 152.01 113.96 152.25 117.55 152.23 C 120.54 152.16 123.33 153.35 125.98 154.61 C 129.24 153.05 132.87 150.76 136.58 152.30 C 139.06 155.34 138.10 159.54 137.21 162.99 C 136.71 165.23 135.15 167.19 132.95 167.95 C 130.44 167.36 128.32 164.48 125.58 165.55 C 121.89 168.47 120.16 173.06 118.19 177.18 C 116.28 181.76 114.27 186.58 114.46 191.63 C 115.72 193.77 117.87 195.18 119.35 197.15 C 119.08 198.90 118.32 200.83 116.33 201.11 C 111.90 202.06 106.99 203.18 102.63 201.42 C 100.78 199.17 99.92 195.96 101.16 193.21 C 104.69 183.85 108.13 174.42 110.43 164.66 C 111.45 161.57 108.30 159.46 106.83 157.17 C 108.80 157.58 110.76 158.02 112.71 158.48 C 113.56 166.29 109.71 173.43 107.73 180.76 C 106.29 186.23 103.73 191.38 102.75 196.97 C 102.34 198.88 104.28 200.43 106.09 200.30 C 110.42 200.22 114.87 199.52 118.77 197.52 C 116.77 196.68 114.69 196.07 112.77 195.06 C 111.21 190.27 113.16 185.33 114.89 180.88 C 116.68 176.44 117.97 171.69 120.77 167.76 C 122.80 164.86 126.01 163.16 129.26 161.98 C 130.40 163.72 131.55 165.46 132.71 167.19 C 135.38 163.14 136.87 158.36 136.33 153.48 C 132.27 153.31 128.63 155.26 125.98 158.23 C 124.28 156.79 122.71 155.12 120.71 154.09 C 117.11 153.48 113.43 154.30 109.91 155.09 C 109.08 155.29 108.25 155.54 107.44 155.82 Z" />
</g>
<g id="#1a3f49ff">
<path fill="#1a3f49" opacity="1.00" d=" M 349.00 161.05 C 355.47 156.25 363.07 153.23 370.94 151.70 C 373.90 151.31 377.39 151.14 379.53 153.64 L 378.65 153.59 C 368.14 152.94 357.90 157.44 349.56 163.55 C 342.57 168.66 338.99 176.95 336.82 185.07 C 335.67 190.11 336.59 196.73 341.84 199.10 C 346.02 200.51 350.57 199.55 354.82 198.90 C 355.38 198.87 356.48 198.82 357.04 198.79 C 354.64 202.46 349.79 202.21 345.93 202.26 C 340.01 202.42 335.28 197.19 334.47 191.62 C 333.73 186.32 335.35 181.00 337.31 176.13 C 340.16 170.43 343.27 164.35 349.00 161.05 Z" />
</g>
<g id="#175366ff">
<path fill="#175366" opacity="1.00" d=" M 402.68 159.59 C 409.30 155.90 416.15 151.63 423.97 151.56 C 427.97 151.53 432.24 151.28 435.95 153.02 C 437.33 154.14 438.56 156.04 438.25 157.88 C 436.31 161.33 432.41 163.34 431.07 167.19 C 428.49 173.83 427.39 180.96 426.71 188.01 C 426.03 191.57 431.25 193.78 429.47 197.36 C 427.03 199.92 423.49 201.40 419.99 201.64 C 418.67 201.85 417.56 201.15 417.16 199.90 C 421.18 199.82 425.02 198.50 428.67 196.90 C 428.73 196.37 428.87 195.30 428.93 194.77 C 427.42 194.18 425.69 193.98 424.42 192.93 C 423.87 182.77 426.53 172.65 430.56 163.39 C 431.37 160.71 434.29 160.06 436.48 158.92 C 436.50 157.53 436.53 156.15 436.57 154.77 C 428.14 152.51 418.98 153.21 411.09 157.00 C 403.87 160.32 396.84 164.57 391.60 170.64 C 387.99 174.68 386.42 180.00 385.01 185.11 C 383.96 189.09 383.43 193.65 385.63 197.35 C 387.77 200.97 392.77 200.00 396.18 199.13 C 403.93 195.76 410.44 190.19 417.02 185.01 C 416.36 189.61 415.78 194.27 416.23 198.93 C 413.95 197.30 413.91 194.32 413.31 191.85 C 405.64 193.97 400.42 201.78 392.03 201.80 C 386.68 202.34 381.88 197.27 382.17 192.03 C 382.23 178.56 390.59 165.48 402.68 159.59 Z" />
</g>
<g id="#eff8f9ff">
<path fill="#eff8f9" opacity="1.00" d=" M 253.51 156.54 C 258.47 155.19 263.43 153.81 268.45 152.69 C 269.33 157.49 267.67 162.13 266.81 166.79 C 274.20 160.86 282.08 154.12 292.05 153.77 C 294.54 153.52 296.69 155.42 297.28 157.75 C 299.12 163.67 296.72 169.78 294.06 175.04 C 290.00 182.98 282.85 188.88 275.28 193.34 C 269.79 196.64 263.24 197.10 256.99 196.58 C 254.96 201.51 253.28 206.61 252.31 211.86 L 252.10 212.66 C 251.79 213.82 251.52 215.00 251.30 216.18 C 250.94 218.49 250.76 220.82 250.57 223.15 C 247.55 223.45 244.52 223.43 241.49 223.40 C 241.67 222.64 242.04 221.11 242.23 220.35 C 242.90 218.32 243.64 216.31 244.22 214.26 C 244.50 212.88 244.73 211.50 244.98 210.12 C 247.47 205.35 249.35 200.31 250.87 195.16 C 249.62 193.85 247.92 192.83 247.19 191.13 C 248.77 190.33 250.60 190.60 252.31 190.51 C 255.74 180.25 260.54 169.84 259.48 158.76 C 257.76 158.46 256.04 158.19 254.34 157.81 C 254.13 157.49 253.72 156.86 253.51 156.54 M 275.54 163.51 C 265.32 169.89 261.33 182.14 258.16 193.12 C 266.11 193.99 274.53 192.03 280.49 186.49 C 285.64 182.33 288.50 175.99 289.56 169.58 C 289.97 166.03 289.19 162.00 286.32 159.62 C 282.23 157.97 278.71 161.45 275.54 163.51 Z" />
</g>
<g id="#f1f9fbff">
<path fill="#f1f9fb" opacity="1.00" d=" M 313.02 154.85 C 317.50 154.37 321.94 153.48 326.43 153.06 C 326.44 155.53 326.44 158.07 325.36 160.36 C 320.76 171.28 313.97 181.68 312.81 193.73 C 313.77 195.06 315.12 196.05 316.35 197.13 C 316.65 197.38 317.25 197.87 317.55 198.11 C 312.78 198.67 307.96 198.76 303.17 198.47 C 303.27 196.37 303.22 194.21 304.01 192.22 C 307.90 182.19 313.19 172.59 315.40 161.97 C 316.23 159.27 314.18 157.05 313.02 154.85 Z" />
</g>
<g id="#eff9faff">
<path fill="#eff9fa" opacity="1.00" d=" M 349.56 163.55 C 357.90 157.44 368.14 152.94 378.65 153.59 C 379.53 156.33 379.10 159.12 377.72 161.62 C 375.57 160.36 373.61 158.33 370.96 158.37 C 361.24 157.89 351.97 164.33 348.12 173.11 C 345.88 177.99 344.37 183.72 346.21 188.97 C 347.57 193.21 352.72 195.11 356.79 193.95 C 361.94 192.67 364.79 187.13 370.21 186.47 C 367.46 192.94 360.62 195.80 354.82 198.90 C 350.57 199.55 346.02 200.51 341.84 199.10 C 336.59 196.73 335.67 190.11 336.82 185.07 C 338.99 176.95 342.57 168.66 349.56 163.55 Z" />
</g>
<g id="#749fa6ff">
<path fill="#749fa6" opacity="1.00" d=" M 109.91 155.09 C 113.43 154.30 117.11 153.48 120.71 154.09 C 122.71 155.12 124.28 156.79 125.98 158.23 C 124.84 159.32 123.70 160.40 122.54 161.46 C 122.23 159.25 121.94 157.04 121.67 154.83 C 117.75 154.83 113.82 154.70 109.91 155.09 Z" />
</g>
<g id="#eff9f9ff">
<path fill="#eff9f9" opacity="1.00" d=" M 125.98 158.23 C 128.63 155.26 132.27 153.31 136.33 153.48 C 136.87 158.36 135.38 163.14 132.71 167.19 C 131.55 165.46 130.40 163.72 129.26 161.98 C 126.01 163.16 122.80 164.86 120.77 167.76 C 117.97 171.69 116.68 176.44 114.89 180.88 C 113.16 185.33 111.21 190.27 112.77 195.06 C 114.69 196.07 116.77 196.68 118.77 197.52 C 114.87 199.52 110.42 200.22 106.09 200.30 C 104.28 200.43 102.34 198.88 102.75 196.97 C 103.73 191.38 106.29 186.23 107.73 180.76 C 109.71 173.43 113.56 166.29 112.71 158.48 C 110.76 158.02 108.80 157.58 106.83 157.17 C 106.98 156.83 107.29 156.16 107.44 155.82 C 108.25 155.54 109.08 155.29 109.91 155.09 C 113.82 154.70 117.75 154.83 121.67 154.83 C 121.94 157.04 122.23 159.25 122.54 161.46 C 123.70 160.40 124.84 159.32 125.98 158.23 Z" />
</g>
<g id="#1f4852ff">
<path fill="#1f4852" opacity="1.00" d=" M 378.65 153.59 L 379.53 153.64 C 380.44 155.07 381.17 156.62 381.98 158.12 C 380.56 159.62 379.35 161.44 377.50 162.43 C 374.99 162.48 372.71 160.93 370.22 160.68 C 363.31 160.28 356.34 163.67 352.58 169.52 C 349.03 175.26 345.68 182.50 348.79 189.18 C 349.64 192.26 353.44 191.82 355.92 191.74 C 360.28 191.82 362.52 187.48 366.12 185.84 C 367.81 185.62 369.51 185.81 371.21 185.88 C 371.16 190.80 366.91 193.67 363.45 196.41 C 361.63 197.87 359.42 198.91 357.04 198.79 C 356.48 198.82 355.38 198.87 354.82 198.90 C 360.62 195.80 367.46 192.94 370.21 186.47 C 364.79 187.13 361.94 192.67 356.79 193.95 C 352.72 195.11 347.57 193.21 346.21 188.97 C 344.37 183.72 345.88 177.99 348.12 173.11 C 351.97 164.33 361.24 157.89 370.96 158.37 C 373.61 158.33 375.57 160.36 377.72 161.62 C 379.10 159.12 379.53 156.33 378.65 153.59 Z" />
<path fill="#1f4852" opacity="1.00" d=" M 365.54 250.42 C 369.14 248.80 374.31 250.98 374.75 255.17 C 374.76 260.27 371.33 264.70 367.12 267.26 C 369.13 264.12 371.54 261.06 372.46 257.39 C 373.09 254.72 371.29 251.05 368.12 251.64 C 364.66 252.49 361.73 254.81 359.21 257.25 C 356.80 259.41 357.11 262.88 356.73 265.81 C 359.63 266.67 362.51 267.61 365.43 268.47 C 361.83 270.81 355.17 270.07 354.69 264.98 C 354.26 258.36 359.64 252.61 365.54 250.42 Z" />
</g>
<g id="#f2f9fbff">
<path fill="#f2f9fb" opacity="1.00" d=" M 411.09 157.00 C 418.98 153.21 428.14 152.51 436.57 154.77 C 436.53 156.15 436.50 157.53 436.48 158.92 C 434.29 160.06 431.37 160.71 430.56 163.39 C 426.53 172.65 423.87 182.77 424.42 192.93 C 425.69 193.98 427.42 194.18 428.93 194.77 C 428.87 195.30 428.73 196.37 428.67 196.90 C 425.02 198.50 421.18 199.82 417.16 199.90 C 416.92 199.65 416.46 199.17 416.23 198.93 C 415.78 194.27 416.36 189.61 417.02 185.01 C 410.44 190.19 403.93 195.76 396.18 199.13 C 392.77 200.00 387.77 200.97 385.63 197.35 C 383.43 193.65 383.96 189.09 385.01 185.11 C 386.42 180.00 387.99 174.68 391.60 170.64 C 396.84 164.57 403.87 160.32 411.09 157.00 M 408.28 161.26 C 403.02 163.97 397.47 167.52 395.39 173.37 C 393.82 177.73 392.33 182.36 392.85 187.05 C 393.14 190.14 395.54 193.65 398.97 193.39 C 402.34 192.91 405.59 191.42 408.04 189.03 C 416.58 181.13 422.65 169.92 422.47 158.09 C 417.59 158.14 412.63 158.93 408.28 161.26 Z" />
</g>
<g id="#244f58ff">
<path fill="#244f58" opacity="1.00" d=" M 254.34 157.81 C 256.04 158.19 257.76 158.46 259.48 158.76 C 260.54 169.84 255.74 180.25 252.31 190.51 C 250.60 190.60 248.77 190.33 247.19 191.13 C 247.92 192.83 249.62 193.85 250.87 195.16 C 249.35 200.31 247.47 205.35 244.98 210.12 C 245.05 209.65 245.20 208.72 245.27 208.26 C 245.85 203.81 247.96 199.43 246.99 194.89 C 246.85 193.42 246.19 191.96 246.50 190.48 C 248.50 188.52 251.48 187.33 252.41 184.47 C 254.62 178.51 256.05 172.27 257.24 166.04 C 258.03 162.93 255.86 160.28 254.34 157.81 Z" />
</g>
<g id="#1c4e70ff">
<path fill="#1c4e70" opacity="1.00" d=" M 275.54 163.51 C 278.71 161.45 282.23 157.97 286.32 159.62 C 289.19 162.00 289.97 166.03 289.56 169.58 C 288.50 175.99 285.64 182.33 280.49 186.49 C 274.53 192.03 266.11 193.99 258.16 193.12 C 261.33 182.14 265.32 169.89 275.54 163.51 M 278.92 162.97 C 273.92 166.45 268.84 170.45 266.36 176.19 C 264.27 180.98 261.44 185.76 261.78 191.19 C 272.27 192.42 282.98 185.16 286.18 175.17 C 287.89 170.94 288.26 165.97 286.16 161.82 C 283.93 160.22 280.93 161.59 278.92 162.97 Z" />
</g>
<g id="#030406ff">
<path fill="#030406" opacity="1.00" d=" M 400.54 168.56 C 406.08 164.25 412.53 160.40 419.74 160.10 C 420.07 170.95 414.76 181.54 406.58 188.51 C 403.54 191.17 399.29 190.95 395.54 190.55 C 394.48 183.00 395.49 174.55 400.54 168.56 Z" />
</g>
<g id="#8f110fff">
<path fill="#8f110f" opacity="1.00" d=" M 220.52 160.57 C 221.40 162.73 222.20 164.93 222.84 167.18 C 222.91 167.81 223.06 169.08 223.13 169.71 C 223.22 172.60 223.21 175.49 223.27 178.38 C 201.03 178.46 178.78 178.54 156.55 178.36 C 156.50 177.82 156.40 176.72 156.36 176.17 C 161.88 176.84 167.44 176.99 173.00 176.87 C 189.28 176.66 205.56 177.16 221.83 176.53 C 221.73 171.19 221.20 165.87 220.52 160.57 Z" />
</g>
<g id="#030407ff">
<path fill="#030407" opacity="1.00" d=" M 278.92 162.97 C 280.93 161.59 283.93 160.22 286.16 161.82 C 288.26 165.97 287.89 170.94 286.18 175.17 C 282.98 185.16 272.27 192.42 261.78 191.19 C 261.44 185.76 264.27 180.98 266.36 176.19 C 268.84 170.45 273.92 166.45 278.92 162.97 Z" />
</g>
<g id="#f5bbb7ff">
<path fill="#f5bbb7" opacity="1.00" d=" M 223.13 169.71 C 223.52 172.58 223.73 175.50 223.27 178.38 C 223.21 175.49 223.22 172.60 223.13 169.71 Z" />
</g>
<g id="#083a50ff">
<path fill="#083a50" opacity="1.00" d=" M 134.40 179.65 C 138.89 180.46 143.47 180.12 148.00 180.19 C 179.73 180.42 211.46 180.15 243.18 180.26 C 242.26 180.59 241.33 180.91 240.41 181.23 C 240.82 181.72 241.23 182.21 241.64 182.70 C 239.83 182.73 238.00 182.70 236.21 182.94 C 235.31 183.80 235.17 185.10 234.75 186.21 C 231.88 184.22 228.27 184.87 225.00 184.78 C 198.33 184.87 171.66 184.79 145.00 184.81 C 142.06 184.78 139.12 184.91 136.22 185.34 C 138.44 187.07 141.32 186.69 143.96 186.69 C 172.71 186.67 201.45 186.70 230.19 186.68 C 226.90 187.18 224.02 188.94 221.59 191.15 C 197.35 191.50 173.11 191.13 148.87 191.34 C 145.66 188.16 140.93 188.70 136.80 188.22 C 135.96 185.37 135.11 182.53 134.40 179.65 Z" />
</g>
<g id="#202020ff">
<path fill="#202020" opacity="1.00" d=" M 32.44 183.47 C 33.92 181.95 36.48 180.84 38.32 182.43 C 39.96 184.47 40.48 187.13 41.37 189.53 C 40.38 189.17 39.39 188.81 38.41 188.43 C 37.36 188.80 36.36 189.31 35.27 189.55 C 32.85 188.71 31.71 185.83 32.44 183.47 M 35.35 184.37 C 35.32 184.97 35.24 186.18 35.21 186.78 C 35.81 186.74 37.00 186.66 37.59 186.62 C 37.59 186.06 37.58 184.93 37.58 184.36 C 37.02 184.37 35.91 184.37 35.35 184.37 Z" />
</g>
<g id="#0e2a36ff">
<path fill="#0e2a36" opacity="1.00" d=" M 230.19 186.68 C 231.71 186.56 233.23 186.41 234.75 186.21 C 234.54 187.02 234.14 188.64 233.93 189.45 C 231.13 189.35 228.32 189.36 225.52 189.42 C 225.12 191.46 224.71 193.51 224.32 195.55 C 215.51 196.94 206.60 195.44 197.76 196.21 C 197.21 198.23 197.39 201.27 194.85 201.91 C 188.74 203.58 182.29 202.61 176.03 202.89 C 170.81 202.66 165.30 203.48 160.30 201.67 C 160.02 201.05 159.47 199.81 159.20 199.20 C 171.55 199.89 183.96 199.43 196.33 199.42 C 196.10 199.13 195.65 198.56 195.43 198.27 C 194.72 197.30 194.04 196.32 193.34 195.35 C 195.28 195.01 197.23 194.65 199.18 194.31 C 189.47 193.53 179.72 194.11 170.00 193.87 C 162.82 193.57 155.39 195.67 148.43 193.13 C 170.95 193.32 193.48 193.14 216.00 193.23 C 218.90 193.27 221.79 193.14 224.68 192.89 C 223.72 192.18 222.69 191.59 221.59 191.15 C 224.02 188.94 226.90 187.18 230.19 186.68 Z" />
</g>
<g id="#648892ff">
<path fill="#648892" opacity="1.00" d=" M 456.46 195.73 C 456.84 193.41 457.22 191.09 457.68 188.78 C 457.60 190.74 457.64 192.72 457.80 194.69 C 458.16 194.93 458.89 195.41 459.26 195.65 C 459.92 196.05 461.23 196.85 461.89 197.25 C 461.56 198.28 461.24 199.32 460.93 200.37 C 455.60 200.14 450.17 202.35 445.00 200.36 C 445.11 199.90 445.34 198.97 445.46 198.51 C 450.51 200.14 455.87 199.39 461.00 198.56 C 459.49 197.59 457.97 196.67 456.46 195.73 Z" />
</g>
<g id="#083a55ff">
<path fill="#083a55" opacity="1.00" d=" M 147.32 192.84 L 148.43 193.13 C 155.39 195.67 162.82 193.57 170.00 193.87 C 179.72 194.11 189.47 193.53 199.18 194.31 C 197.23 194.65 195.28 195.01 193.34 195.35 C 194.04 196.32 194.72 197.30 195.43 198.27 C 186.29 198.10 177.14 198.36 167.99 198.21 C 165.04 198.22 161.95 197.93 159.20 199.20 C 158.84 198.08 158.48 196.95 157.91 195.92 C 154.87 195.51 151.79 195.59 148.73 195.54 C 148.38 194.87 147.68 193.52 147.32 192.84 Z" />
</g>
<g id="#eafafaff">
<path fill="#eafafa" opacity="1.00" d=" M 159.20 199.20 C 161.95 197.93 165.04 198.22 167.99 198.21 C 177.14 198.36 186.29 198.10 195.43 198.27 C 195.65 198.56 196.10 199.13 196.33 199.42 C 183.96 199.43 171.55 199.89 159.20 199.20 Z" />
<path fill="#eafafa" opacity="1.00" d=" M 423.65 248.67 C 428.35 245.42 434.78 245.10 440.01 247.26 C 439.73 248.77 439.13 250.20 438.64 251.65 C 435.68 249.10 431.73 247.05 427.83 248.85 C 425.06 249.33 424.25 252.01 423.98 254.42 C 428.10 256.21 432.73 257.03 436.45 259.65 C 438.36 264.16 434.85 268.82 431.22 271.23 C 426.17 274.56 419.72 273.61 414.41 271.47 L 414.87 270.73 C 415.77 269.31 416.64 267.86 417.51 266.43 C 418.78 267.83 419.91 269.43 421.54 270.46 C 423.80 270.92 426.24 271.04 428.48 270.39 C 431.08 269.40 431.64 266.47 432.43 264.14 C 428.85 262.49 424.83 261.70 421.60 259.39 C 418.18 256.34 420.62 251.04 423.65 248.67 Z" />
</g>
<g id="#0905c8ff">
<path fill="#0905c8" opacity="1.00" d=" M 229.00 211.55 C 234.52 211.38 241.07 212.88 245.27 208.26 C 245.20 208.72 245.05 209.65 244.98 210.12 C 244.73 211.50 244.50 212.88 244.22 214.26 C 241.31 217.38 236.79 216.29 232.99 216.47 C 185.66 216.42 138.33 216.46 90.99 216.45 C 85.31 216.42 79.63 216.56 73.96 216.28 C 73.87 214.75 73.82 213.22 73.78 211.69 C 80.85 211.37 87.93 211.57 95.00 211.53 C 139.67 211.54 184.33 211.50 229.00 211.55 Z" />
</g>
<g id="#020580ff">
<path fill="#020580" opacity="1.00" d=" M 252.31 211.86 C 253.29 210.49 254.32 209.15 255.24 207.74 L 255.54 208.79 C 255.72 209.29 256.08 210.30 256.26 210.81 C 258.82 211.14 261.40 211.29 263.98 211.32 C 342.65 211.05 421.33 211.49 500.00 211.14 L 500.00 212.84 C 474.34 212.46 448.67 212.77 423.00 212.66 C 366.03 212.66 309.06 212.67 252.10 212.66 L 252.31 211.86 Z" />
</g>
<g id="#020428ff">
<path fill="#020428" opacity="1.00" d=" M 450.00 208.96 C 456.90 209.09 463.82 209.42 470.71 208.88 C 480.47 208.82 490.24 209.04 500.00 209.06 L 500.00 211.14 C 421.33 211.49 342.65 211.05 263.98 211.32 C 261.40 211.29 258.82 211.14 256.26 210.81 C 256.08 210.30 255.72 209.29 255.54 208.79 C 278.96 209.38 302.40 208.36 325.80 209.45 C 337.19 208.63 348.60 209.21 360.00 208.93 C 390.00 209.02 420.00 209.05 450.00 208.96 Z" />
</g>
<g id="#1f06b4ff">
<path fill="#1f06b4" opacity="1.00" d=" M 68.23 212.03 C 69.42 211.70 70.61 211.38 71.80 211.05 C 71.79 212.68 71.80 214.31 71.81 215.94 C 70.63 215.88 69.46 215.84 68.29 215.80 C 68.27 214.54 68.25 213.28 68.23 212.03 Z" />
</g>
<g id="#0806c9ff">
<path fill="#0806c9" opacity="1.00" d=" M 0.00 211.55 C 21.99 211.61 43.99 211.30 65.98 211.71 C 66.07 213.13 66.15 214.54 66.22 215.96 C 44.15 215.94 22.07 215.94 0.00 215.97 L 0.00 211.55 Z" />
</g>
<g id="#0a07ccff">
<path fill="#0a07cc" opacity="1.00" d=" M 251.30 216.18 C 251.52 215.00 251.79 213.82 252.10 212.66 C 309.06 212.67 366.03 212.66 423.00 212.66 C 448.67 212.77 474.34 212.46 500.00 212.84 L 500.00 216.42 C 419.68 216.51 339.36 216.41 259.04 216.47 C 256.46 216.46 253.87 216.35 251.30 216.18 Z" />
</g>
<g id="#858cdbff">
<path fill="#858cdb" opacity="1.00" d=" M 0.00 215.97 C 22.07 215.94 44.15 215.94 66.22 215.96 L 66.27 217.03 C 44.18 216.97 22.09 217.06 0.00 217.00 L 0.00 215.97 Z" />
</g>
<g id="#9098afff">
<path fill="#9098af" opacity="1.00" d=" M 0.00 217.00 C 22.09 217.06 44.18 216.97 66.27 217.03 L 66.31 218.07 C 44.20 217.97 22.10 218.08 0.00 218.02 L 0.00 217.00 Z" />
</g>
<g id="#140211ff">
<path fill="#140211" opacity="1.00" d=" M 68.37 217.90 C 69.53 217.88 70.70 217.87 71.87 217.86 C 71.88 224.36 71.86 230.87 71.92 237.37 C 71.14 237.40 69.58 237.47 68.81 237.50 C 68.61 230.97 68.53 224.43 68.37 217.90 Z" />
</g>
<g id="#d5d5d3ff">
<path fill="#d5d5d3" opacity="1.00" d=" M 379.08 224.39 C 388.01 223.48 397.03 224.22 406.00 223.99 C 437.33 223.97 468.67 224.03 500.00 224.00 L 500.00 225.09 C 461.33 225.11 422.66 224.99 383.99 225.10 C 382.32 225.09 380.68 224.80 379.08 224.39 Z" />
</g>
<g id="#e3e3e3ff">
<path fill="#e3e3e3" opacity="1.00" d=" M 0.00 225.99 C 9.93 226.22 19.91 225.52 29.81 226.33 C 27.63 227.01 25.33 227.07 23.06 227.05 C 15.37 226.98 7.69 227.01 0.00 227.00 L 0.00 225.99 Z" />
</g>
<g id="#224655ff">
<path fill="#224655" opacity="1.00" d=" M 295.24 227.85 C 303.34 226.79 311.72 225.67 319.82 227.42 C 321.48 227.56 322.51 229.18 322.53 230.74 C 322.74 235.50 320.56 239.91 319.03 244.30 C 324.11 244.98 329.27 245.76 334.37 244.86 C 336.15 238.61 338.69 232.06 343.87 227.84 C 347.40 224.92 352.18 226.62 356.18 227.35 C 355.84 231.52 351.60 233.28 349.43 236.38 C 343.69 244.27 340.59 253.86 339.51 263.49 C 338.98 266.85 341.08 269.74 342.50 272.58 C 340.83 271.69 339.15 270.84 337.48 269.98 C 336.27 258.19 340.71 246.60 346.56 236.58 C 348.37 233.00 351.71 230.69 355.23 229.00 C 351.44 228.69 346.15 226.57 343.52 230.42 C 339.72 235.71 337.55 241.93 335.11 247.92 C 328.58 246.68 321.89 246.80 315.36 248.01 C 317.53 241.84 320.15 235.79 321.41 229.35 C 313.11 228.40 304.47 228.02 296.30 230.10 C 293.85 230.48 294.01 233.51 293.11 235.30 C 299.50 233.08 305.95 230.45 312.84 230.57 C 312.38 239.99 308.89 248.91 305.54 257.62 C 302.50 264.35 299.87 272.41 292.58 275.68 C 290.02 276.58 288.57 278.75 287.86 281.27 C 294.83 277.88 300.93 272.71 305.62 266.57 C 309.11 262.13 310.69 256.55 314.07 252.05 C 314.90 250.78 316.40 250.27 317.80 249.91 C 323.13 248.71 328.76 249.25 333.87 251.15 C 333.24 254.63 332.33 258.06 331.21 261.43 C 330.83 258.50 330.66 255.56 330.60 252.62 C 325.09 250.67 317.55 250.47 313.99 255.95 C 310.01 263.30 306.11 271.13 299.32 276.34 C 296.84 278.41 293.38 279.98 292.77 283.50 C 292.55 284.21 292.10 285.62 291.88 286.32 C 289.88 284.70 287.61 283.15 286.47 280.76 C 286.98 274.62 294.01 273.42 297.26 269.27 C 303.92 258.45 307.99 246.22 310.23 233.75 C 304.10 232.49 298.68 236.93 292.54 236.44 C 292.69 233.51 292.46 229.68 295.24 227.85 Z" />
</g>
<g id="#bababaff">
<path fill="#bababa" opacity="1.00" d=" M 88.33 228.53 C 89.51 228.06 90.73 227.78 91.99 227.71 C 153.34 227.70 214.70 227.74 276.05 227.68 C 277.59 227.62 279.09 228.03 280.53 228.56 C 278.70 228.85 276.86 229.01 275.01 229.03 C 218.01 229.00 161.00 229.02 104.00 229.02 C 98.78 228.91 93.51 229.40 88.33 228.53 Z" />
</g>
<g id="#f0f8faff">
<path fill="#f0f8fa" opacity="1.00" d=" M 343.52 230.42 C 346.15 226.57 351.44 228.69 355.23 229.00 C 351.71 230.69 348.37 233.00 346.56 236.58 C 340.71 246.60 336.27 258.19 337.48 269.98 C 339.15 270.84 340.83 271.69 342.50 272.58 C 338.39 273.93 333.99 273.42 329.74 273.58 C 329.57 269.48 329.93 265.34 331.21 261.43 C 332.33 258.06 333.24 254.63 333.87 251.15 C 328.76 249.25 323.13 248.71 317.80 249.91 C 316.40 250.27 314.90 250.78 314.07 252.05 C 310.69 256.55 309.11 262.13 305.62 266.57 C 300.93 272.71 294.83 277.88 287.86 281.27 C 288.57 278.75 290.02 276.58 292.58 275.68 C 299.87 272.41 302.50 264.35 305.54 257.62 C 308.89 248.91 312.38 239.99 312.84 230.57 C 305.95 230.45 299.50 233.08 293.11 235.30 C 294.01 233.51 293.85 230.48 296.30 230.10 C 304.47 228.02 313.11 228.40 321.41 229.35 C 320.15 235.79 317.53 241.84 315.36 248.01 C 321.89 246.80 328.58 246.68 335.11 247.92 C 337.55 241.93 339.72 235.71 343.52 230.42 Z" />
</g>
<g id="#c49eb7ff">
<path fill="#c49eb7" opacity="1.00" d=" M 82.78 233.61 C 86.28 233.70 89.54 235.04 92.65 236.53 C 92.53 237.74 92.41 238.96 92.29 240.19 C 91.92 240.31 91.20 240.54 90.84 240.66 C 90.36 239.38 89.98 238.05 89.28 236.87 C 87.09 235.83 84.44 235.56 82.78 233.61 Z" />
</g>
<g id="#100312ff">
<path fill="#100312" opacity="1.00" d=" M 52.16 237.13 C 56.69 235.49 61.47 234.74 66.25 234.36 C 65.26 235.00 64.28 235.66 63.31 236.33 C 62.66 237.72 62.13 239.17 61.58 240.61 C 59.61 241.15 57.62 241.66 55.69 242.37 C 54.84 242.19 54.00 241.99 53.16 241.77 C 52.82 240.23 52.48 238.68 52.16 237.13 Z" />
</g>
<g id="#b87fb8ff">
<path fill="#b87fb8" opacity="1.00" d=" M 61.58 240.61 C 62.13 239.17 62.66 237.72 63.31 236.33 C 63.40 237.74 63.52 239.15 63.61 240.56 C 67.01 240.80 70.41 241.11 73.83 241.24 C 77.53 241.45 81.25 241.40 84.93 241.88 C 81.67 243.90 77.79 243.83 74.10 243.85 C 70.74 243.85 67.38 243.87 64.01 243.74 C 61.20 243.53 58.44 242.98 55.69 242.37 C 57.62 241.66 59.61 241.15 61.58 240.61 Z" />
</g>
<g id="#b7b7b7ff">
<path fill="#b7b7b7" opacity="1.00" d=" M 103.41 239.59 C 104.56 239.09 105.76 238.81 107.01 238.74 C 159.01 238.74 211.01 238.75 263.02 238.73 C 264.43 238.73 265.79 239.05 267.09 239.66 C 263.08 240.21 259.03 239.97 255.01 240.00 C 208.67 240.00 162.34 240.00 116.00 240.00 C 111.80 239.95 107.57 240.26 103.41 239.59 Z" />
</g>
<g id="#163133ff">
<path fill="#163133" opacity="1.00" d=" M 374.31 243.39 C 377.40 243.08 380.14 244.93 381.43 247.68 C 384.41 252.16 381.99 257.62 379.89 261.91 C 375.66 269.09 367.49 272.49 359.93 275.00 C 355.36 276.58 349.40 275.16 347.29 270.50 C 345.29 263.41 349.92 256.53 354.89 251.90 C 360.52 247.57 366.74 242.70 374.31 243.39 M 370.32 246.12 C 364.40 247.35 359.63 251.33 355.05 255.04 C 351.17 258.10 348.93 263.06 349.20 268.00 C 348.60 271.65 352.67 274.30 355.99 273.56 C 361.00 272.76 365.63 270.41 370.07 268.06 C 376.33 264.91 380.47 257.90 380.43 250.96 C 379.90 246.23 374.22 244.79 370.32 246.12 Z" />
</g>
<g id="#1c3d4bff">
<path fill="#1c3d4b" opacity="1.00" d=" M 464.37 243.76 C 466.80 243.49 469.00 245.24 470.26 247.17 C 471.23 250.22 469.56 253.30 467.40 255.37 C 464.43 258.34 460.87 260.99 456.60 261.58 C 454.72 262.14 451.82 261.94 451.39 264.42 C 450.40 267.33 453.93 268.03 455.83 269.01 C 456.95 267.78 457.90 266.30 459.36 265.45 C 461.73 264.43 464.03 266.02 466.12 266.98 C 462.29 272.63 455.64 275.74 448.91 275.88 C 445.01 276.17 441.97 272.86 440.32 269.69 C 439.87 265.59 441.63 261.62 442.85 257.79 C 443.93 254.17 447.67 252.58 450.38 250.38 C 454.49 247.19 459.13 244.44 464.37 243.76 M 455.99 249.06 C 452.41 251.10 449.91 254.77 445.81 255.89 C 445.20 261.07 440.93 266.26 443.54 271.46 C 445.42 274.21 449.18 273.66 452.04 273.31 C 456.51 272.46 462.15 270.80 463.17 265.65 C 459.45 267.52 456.32 272.23 451.62 270.52 C 447.19 268.42 448.93 263.19 450.01 259.56 C 453.17 259.77 456.58 260.30 459.45 258.58 C 463.29 256.46 468.04 254.48 469.52 249.95 C 470.23 247.34 467.26 245.52 464.98 245.88 C 461.79 246.28 458.68 247.30 455.99 249.06 Z" />
</g>
<g id="#564158ff">
<path fill="#564158" opacity="1.00" d=" M 64.01 243.74 C 67.38 243.87 70.74 243.85 74.10 243.85 C 73.67 246.00 73.24 248.16 72.80 250.31 C 72.58 250.33 72.15 250.36 71.93 250.38 C 71.48 248.76 71.11 247.10 70.33 245.60 C 68.87 245.08 67.33 244.81 65.82 244.49 C 67.11 249.26 68.81 253.90 70.25 258.63 C 71.08 258.53 71.92 258.43 72.76 258.33 C 73.87 264.47 72.98 270.73 73.34 276.92 C 72.02 277.42 70.70 277.92 69.38 278.44 C 70.53 282.00 72.35 285.34 73.21 288.99 C 72.88 290.47 72.17 291.83 71.57 293.22 C 73.75 299.25 73.40 305.70 73.64 312.00 L 71.85 312.00 C 71.46 306.32 71.63 300.55 70.22 294.98 C 69.21 291.43 71.36 287.72 69.83 284.26 C 68.47 280.85 67.39 277.29 67.41 273.59 C 68.90 273.63 70.40 273.67 71.90 273.72 C 72.01 270.32 72.63 266.80 71.68 263.48 C 70.03 261.75 67.97 260.49 66.06 259.09 C 64.17 265.20 64.31 271.70 66.12 277.82 C 67.83 282.52 64.74 287.18 65.88 291.91 C 67.05 298.54 66.35 305.31 66.80 312.00 L 64.85 312.00 C 64.06 303.45 65.87 294.56 62.63 286.36 C 63.64 284.24 65.17 282.15 64.97 279.69 C 64.69 275.11 63.68 270.56 64.05 265.96 C 64.23 261.90 65.41 257.96 65.52 253.90 C 65.40 250.46 64.50 247.12 64.01 243.74 Z" />
</g>
<g id="#12494eff">
<path fill="#12494e" opacity="1.00" d=" M 384.77 247.79 C 387.57 243.34 393.35 243.84 397.74 245.18 C 400.22 246.07 399.97 249.26 399.29 251.30 C 397.54 256.36 394.20 260.76 393.08 266.07 C 395.92 264.82 398.91 263.48 400.82 260.91 C 404.30 256.31 403.78 249.87 407.31 245.31 C 409.81 243.09 416.40 243.86 415.65 248.28 C 415.53 254.07 410.97 258.49 410.20 264.11 C 409.76 267.13 411.04 270.00 411.93 272.81 C 408.93 273.89 405.79 275.20 402.54 274.67 C 400.47 274.21 398.80 272.80 396.85 272.07 C 392.85 272.54 389.17 274.99 385.04 274.52 C 383.52 274.37 382.32 273.19 381.67 271.89 C 381.60 265.79 385.01 260.45 386.65 254.75 C 387.39 252.26 385.61 250.01 384.77 247.79 M 385.22 248.20 C 387.09 248.77 389.02 249.18 390.92 249.69 C 389.40 255.27 386.85 260.47 384.77 265.83 C 384.03 267.82 383.06 269.85 383.42 272.04 C 384.23 273.45 385.42 273.89 386.97 273.36 C 392.09 272.29 396.56 269.39 400.84 266.53 C 400.41 268.82 400.01 271.11 399.63 273.42 C 403.51 273.20 407.36 272.59 411.17 271.86 C 409.72 271.18 408.26 270.54 406.81 269.89 C 407.16 261.25 412.74 254.17 414.43 245.90 C 412.44 246.00 410.46 246.11 408.47 246.25 C 407.61 249.44 406.81 252.66 405.84 255.83 C 403.83 262.73 397.21 268.04 390.18 268.93 C 390.74 260.66 397.10 254.23 397.93 246.10 C 393.59 245.91 389.29 246.78 385.22 248.20 Z" />
</g>
<g id="#20424aff">
<path fill="#20424a" opacity="1.00" d=" M 418.23 256.72 C 417.69 249.54 424.90 242.92 432.00 243.62 C 435.65 243.72 438.96 245.43 442.14 247.07 C 441.25 249.08 440.61 251.37 438.82 252.79 C 435.02 251.75 431.28 249.68 427.27 251.20 C 427.30 251.79 427.36 252.99 427.39 253.58 C 431.13 255.31 435.93 256.03 438.32 259.70 C 440.77 265.17 436.28 270.29 431.88 272.97 C 427.85 275.94 422.55 276.03 417.83 275.10 C 415.90 274.93 415.35 272.81 414.41 271.47 C 419.72 273.61 426.17 274.56 431.22 271.23 C 434.85 268.82 438.36 264.16 436.45 259.65 C 432.73 257.03 428.10 256.21 423.98 254.42 C 424.25 252.01 425.06 249.33 427.83 248.85 C 431.73 247.05 435.68 249.10 438.64 251.65 C 439.13 250.20 439.73 248.77 440.01 247.26 C 434.78 245.10 428.35 245.42 423.65 248.67 C 420.62 251.04 418.18 256.34 421.60 259.39 C 424.83 261.70 428.85 262.49 432.43 264.14 C 431.64 266.47 431.08 269.40 428.48 270.39 C 426.24 271.04 423.80 270.92 421.54 270.46 C 419.91 269.43 418.78 267.83 417.51 266.43 C 416.64 267.86 415.77 269.31 414.87 270.73 C 414.41 271.11 413.51 271.86 413.05 272.24 C 413.50 269.31 414.79 266.06 417.98 265.27 C 420.33 266.21 422.28 268.20 424.83 268.55 C 426.43 268.33 429.29 267.53 428.67 265.41 C 424.75 263.19 419.23 261.85 418.23 256.72 Z" />
</g>
<g id="#120515ff">
<path fill="#120515" opacity="1.00" d=" M 65.82 244.49 C 67.33 244.81 68.87 245.08 70.33 245.60 C 71.11 247.10 71.48 248.76 71.93 250.38 C 72.15 250.36 72.58 250.33 72.80 250.31 C 72.20 252.95 72.21 255.68 72.76 258.33 C 71.92 258.43 71.08 258.53 70.25 258.63 C 68.81 253.90 67.11 249.26 65.82 244.49 Z" />
</g>
<g id="#ecf7fcff">
<path fill="#ecf7fc" opacity="1.00" d=" M 385.22 248.20 C 389.29 246.78 393.59 245.91 397.93 246.10 C 397.10 254.23 390.74 260.66 390.18 268.93 C 397.21 268.04 403.83 262.73 405.84 255.83 C 406.81 252.66 407.61 249.44 408.47 246.25 C 410.46 246.11 412.44 246.00 414.43 245.90 C 412.74 254.17 407.16 261.25 406.81 269.89 C 408.26 270.54 409.72 271.18 411.17 271.86 C 407.36 272.59 403.51 273.20 399.63 273.42 C 400.01 271.11 400.41 268.82 400.84 266.53 C 396.56 269.39 392.09 272.29 386.97 273.36 C 385.42 273.89 384.23 273.45 383.42 272.04 C 383.06 269.85 384.03 267.82 384.77 265.83 C 386.85 260.47 389.40 255.27 390.92 249.69 C 389.02 249.18 387.09 248.77 385.22 248.20 Z" />
</g>
<g id="#e7f9fbff">
<path fill="#e7f9fb" opacity="1.00" d=" M 455.99 249.06 C 458.68 247.30 461.79 246.28 464.98 245.88 C 467.26 245.52 470.23 247.34 469.52 249.95 C 468.04 254.48 463.29 256.46 459.45 258.58 C 456.58 260.30 453.17 259.77 450.01 259.56 C 448.93 263.19 447.19 268.42 451.62 270.52 C 456.32 272.23 459.45 267.52 463.17 265.65 C 462.15 270.80 456.51 272.46 452.04 273.31 C 449.18 273.66 445.42 274.21 443.54 271.46 C 440.93 266.26 445.20 261.07 445.81 255.89 C 449.91 254.77 452.41 251.10 455.99 249.06 M 451.48 257.84 C 456.22 258.45 464.32 256.45 462.26 250.10 C 457.06 249.22 452.92 253.16 451.48 257.84 Z" />
</g>
<g id="#e7e7e7ff">
<path fill="#e7e7e7" opacity="1.00" d=" M 483.93 247.33 C 489.26 246.63 494.64 247.09 500.00 247.00 L 500.00 248.01 C 494.65 247.77 489.15 248.78 483.93 247.33 Z" />
</g>
<g id="#0a3441ff">
<path fill="#0a3441" opacity="1.00" d=" M 451.48 257.84 C 452.92 253.16 457.06 249.22 462.26 250.10 C 464.32 256.45 456.22 258.45 451.48 257.84 Z" />
</g>
<g id="#05050bff">
<path fill="#05050b" opacity="1.00" d=" M 359.21 257.25 C 361.73 254.81 364.66 252.49 368.12 251.64 C 371.29 251.05 373.09 254.72 372.46 257.39 C 371.54 261.06 369.13 264.12 367.12 267.26 C 366.70 267.56 365.85 268.16 365.43 268.47 C 362.51 267.61 359.63 266.67 356.73 265.81 C 357.11 262.88 356.80 259.41 359.21 257.25 Z" />
</g>
<g id="#e2e2e2ff">
<path fill="#e2e2e2" opacity="1.00" d=" M 127.67 257.99 C 167.79 258.00 207.92 257.99 248.04 257.99 C 249.23 258.04 250.37 258.28 251.49 258.71 C 248.34 259.22 245.15 258.98 241.99 259.01 C 203.88 259.02 165.77 258.99 127.66 259.02 L 127.67 257.99 Z" />
</g>
<g id="#0e030cff">
<path fill="#0e030c" opacity="1.00" d=" M 66.12 277.82 C 64.31 271.70 64.17 265.20 66.06 259.09 C 67.97 260.49 70.03 261.75 71.68 263.48 C 72.63 266.80 72.01 270.32 71.90 273.72 C 70.40 273.67 68.90 273.63 67.41 273.59 C 67.39 277.29 68.47 280.85 69.83 284.26 C 71.36 287.72 69.21 291.43 70.22 294.98 C 71.63 300.55 71.46 306.32 71.85 312.00 L 66.80 312.00 C 66.35 305.31 67.05 298.54 65.88 291.91 C 64.74 287.18 67.83 282.52 66.12 277.82 Z" />
</g>
<g id="#23282bff">
<path fill="#23282b" opacity="1.00" d=" M 292.77 283.50 C 297.32 285.16 300.29 289.13 303.42 292.58 C 305.53 294.91 306.85 297.79 308.05 300.66 C 307.48 301.05 306.36 301.83 305.79 302.22 C 300.70 297.29 298.00 290.26 291.88 286.32 C 292.10 285.62 292.55 284.21 292.77 283.50 Z" />
</g>
<g id="#b1b1b1ff">
<path fill="#b1b1b1" opacity="1.00" d=" M 154.46 287.92 C 155.74 286.94 157.37 286.65 158.95 286.70 C 182.95 286.73 206.96 286.71 230.97 286.71 C 232.33 286.69 233.55 287.10 234.65 287.94 C 230.45 288.49 226.22 288.24 222.00 288.27 C 201.33 288.27 180.66 288.26 159.99 288.28 C 158.14 288.27 156.29 288.13 154.46 287.92 Z" />
</g>
<g id="#232929ff">
<path fill="#232929" opacity="1.00" d=" M 329.53 288.55 C 333.29 287.58 337.19 288.44 340.95 288.99 C 339.60 290.28 338.08 291.44 337.01 292.99 C 335.84 296.33 335.35 299.89 334.04 303.19 C 329.92 299.86 325.98 293.58 329.53 288.55 Z" />
</g>
<g id="#262d2dff">
<path fill="#262d2d" opacity="1.00" d=" M 349.35 291.35 C 350.87 288.50 354.64 287.29 357.64 288.31 C 362.61 289.84 367.04 292.74 371.21 295.79 C 373.40 297.31 374.99 299.48 376.21 301.82 C 370.89 299.38 366.68 295.06 361.28 292.78 C 359.34 291.88 356.34 292.21 355.57 294.50 C 354.29 297.42 353.52 300.88 350.29 302.27 C 349.40 298.75 348.07 294.94 349.35 291.35 Z" />
</g>
<g id="#282d30ff">
<path fill="#282d30" opacity="1.00" d=" M 380.27 289.70 C 382.31 289.12 384.41 287.75 386.58 288.45 C 389.83 289.56 392.74 291.43 395.79 292.96 C 397.17 291.55 398.46 290.01 400.16 288.98 C 403.76 288.32 408.02 288.19 410.91 290.82 C 409.06 291.47 407.20 292.11 405.33 292.70 C 405.93 294.89 406.50 297.10 407.02 299.32 C 402.23 299.35 398.16 296.80 394.16 294.51 C 393.12 294.06 392.07 293.60 390.96 293.36 C 388.68 294.34 387.11 296.35 384.99 297.56 C 383.69 295.66 382.74 293.54 381.49 291.61 C 381.18 291.13 380.58 290.18 380.27 289.70 Z" />
</g>
<g id="#282e31ff">
<path fill="#282e31" opacity="1.00" d=" M 414.80 289.02 C 421.00 287.44 428.51 287.93 432.95 293.08 C 433.71 294.92 434.31 296.81 434.97 298.69 C 434.15 299.10 433.33 299.51 432.51 299.93 C 431.35 297.43 430.22 294.91 428.83 292.52 C 426.90 291.49 424.58 290.84 422.43 291.46 C 420.25 292.39 418.52 294.06 416.66 295.48 C 415.53 293.49 415.00 291.27 414.80 289.02 Z" />
</g>
<g id="#151718ff">
<path fill="#151718" opacity="1.00" d=" M 381.49 291.61 C 382.74 293.54 383.69 295.66 384.99 297.56 C 387.11 296.35 388.68 294.34 390.96 293.36 C 392.07 293.60 393.12 294.06 394.16 294.51 C 392.81 294.77 391.46 295.03 390.11 295.29 C 391.48 298.11 391.76 301.24 390.86 304.25 C 386.87 304.03 384.77 300.35 382.55 297.55 C 381.16 295.89 381.64 293.59 381.49 291.61 Z" />
</g>
<g id="#121413ff">
<path fill="#121413" opacity="1.00" d=" M 428.83 292.52 C 430.22 294.91 431.35 297.43 432.51 299.93 C 433.33 299.51 434.15 299.10 434.97 298.69 C 434.31 296.81 433.71 294.92 432.95 293.08 C 434.62 294.45 436.90 295.68 437.18 298.07 C 437.46 299.71 437.34 301.84 435.62 302.66 C 431.51 305.33 426.40 305.27 421.71 304.92 C 421.48 301.34 424.58 299.76 427.12 298.04 C 429.09 296.98 428.45 294.36 428.83 292.52 Z" />
</g>
</svg>
