<?xml version="1.0" encoding="utf-8"?>
<!-- Generator: Adobe Illustrator 15.0.0, SVG Export Plug-In . SVG Version: 6.00 Build 0)  -->
<!DOCTYPE svg PUBLIC "-//W3C//DTD SVG 1.1//EN" "http://www.w3.org/Graphics/SVG/1.1/DTD/svg11.dtd">
<svg version="1.1" id="Capa_1" xmlns="http://www.w3.org/2000/svg" xmlns:xlink="http://www.w3.org/1999/xlink" x="0px" y="0px"
	 width="612px" height="792px" viewBox="0 0 612 792" enable-background="new 0 0 612 792" xml:space="preserve">
<path fill="#787878" d="M597.312,552.672c1.224,9.384-1.635,17.544-8.568,24.48l-81.396,80.781
	c-3.672,4.08-8.466,7.551-14.382,10.404c-5.916,2.856-11.729,4.692-17.439,5.508c-0.408,0-1.635,0.104-3.675,0.309
	c-2.037,0.203-4.689,0.306-7.953,0.306c-7.754,0-20.301-1.326-37.641-3.978c-17.34-2.652-38.556-9.183-63.646-19.584
	c-25.095-10.404-53.553-26.013-85.375-46.818s-65.688-49.368-101.592-85.68c-28.56-28.152-52.224-55.08-70.992-80.784
	s-33.864-49.47-45.288-71.298C47.94,344.49,39.372,324.702,33.66,306.954s-9.588-33.048-11.628-45.9
	c-2.04-12.852-2.856-22.95-2.448-30.294c0.408-7.344,0.612-11.424,0.612-12.24c0.816-5.712,2.652-11.526,5.508-17.442
	s6.324-10.71,10.404-14.382l81.396-81.396c5.712-5.712,12.24-8.568,19.584-8.568c5.304,0,9.996,1.53,14.076,4.59
	c4.08,3.06,7.548,6.834,10.404,11.322l65.484,124.236c3.672,6.528,4.692,13.668,3.06,21.42c-1.632,7.752-5.1,14.28-10.404,19.584
	l-29.988,29.988c-0.816,0.816-1.53,2.142-2.142,3.978c-0.612,1.836-0.918,3.366-0.918,4.59c1.632,8.568,5.304,18.36,11.016,29.376
	c4.896,9.792,12.444,21.726,22.644,35.802c10.2,14.076,24.684,30.294,43.452,48.653c18.36,18.769,34.68,33.354,48.96,43.759
	c14.277,10.401,26.214,18.054,35.802,22.95c9.588,4.896,16.932,7.854,22.032,8.871l7.647,1.53c0.816,0,2.145-0.306,3.979-0.918
	s3.162-1.326,3.978-2.142l34.884-35.496c7.347-6.528,15.912-9.792,25.704-9.792c6.938,0,12.444,1.224,16.524,3.672h0.611
	l118.114,69.768C590.58,537.78,595.68,544.512,597.312,552.672z"/>
</svg>
